<svg width="260" height="210" viewBox="0 0 260 210" fill="none" xmlns="http://www.w3.org/2000/svg">
<g clip-path="url(#clip0_1091_4101)">
<path d="M56.9388 9.0502C74.9534 4.03329 103.58 3.59954 156.496 72.9833C202.039 85.5617 219.287 82.352 232.516 73.923C227.629 115.923 182.521 121.562 161.325 118.222C173.195 138.001 168.439 179.914 156.583 191.784C147.836 157.562 136.168 134.43 125.282 122.863C105.633 137.769 39.8351 127.634 34.2832 101.176C74.939 101.176 92.7512 96.8389 112.269 82.9593C101.296 45.8746 77.5703 23.5371 56.9533 9.0502H56.9388Z" fill="white"/>
<path d="M176.868 68.4729C193.804 68.4729 207.534 53.1447 207.534 34.2364C207.534 15.3282 193.804 0 176.868 0C159.932 0 146.203 15.3282 146.203 34.2364C146.203 53.1447 159.932 68.4729 176.868 68.4729Z" fill="white"/>
<path d="M187.075 123.746C209.283 127.621 242.464 136.252 255.953 155.539C276.541 190.281 198.266 205.737 175.841 207.559C134.839 211.737 93.1998 210.291 52.7464 202.354C42.5969 200.214 32.5342 197.64 22.9197 193.621C18.0184 191.583 13.2473 189.11 9.22797 185.554C-6.11192 172.021 1.72429 154.758 16.6304 144.927C25.2618 139.057 34.992 135.298 44.7223 131.842C59.3248 126.854 74.2165 122.922 89.2528 119.582C94.2697 118.527 99.301 117.529 104.361 116.647C84.366 121.143 64.573 126.652 45.4451 133.837C36.0041 137.438 26.4474 141.312 18.1919 147.168C10.5581 152.691 2.85201 161.004 4.34118 171.038C8.07133 198.956 90.8576 204.045 114.279 205.144C144.771 206.257 175.639 205.26 205.495 198.638C296.696 176.546 250.632 136.584 187.075 123.746Z" fill="white"/>
</g>
<defs>
<clipPath id="clip0_1091_4101">
<rect width="258.479" height="209.843" fill="white" transform="translate(0.900391)"/>
</clipPath>
</defs>
</svg>
