<?xml version="1.0" encoding="UTF-8"?>
<svg id="Layer_1" data-name="Layer 1" xmlns="http://www.w3.org/2000/svg" viewBox="0 0 255.96 207.81">
  <defs>
    <style>
      .cls-1 {
        fill: #816cc5;
      }
    </style>
  </defs>
  <g id="Layer_2-2" data-name="Layer 2-2">
    <g>
      <path class="cls-1" d="M55.5,8.96c17.84-4.97,46.19-5.4,98.59,63.31,45.1,12.46,62.18,9.28,75.28.93-4.84,41.59-49.51,47.18-70.5,43.87,11.75,19.59,7.04,61.09-4.7,72.85-8.66-33.89-20.22-56.8-31-68.25-19.46,14.76-84.62,4.72-90.11-21.48,40.26,0,57.9-4.3,77.23-18.04-10.87-36.72-34.36-58.85-54.78-73.19h-.01Z"/>
      <ellipse class="cls-1" cx="174.26" cy="33.9" rx="30.37" ry="33.9"/>
      <path class="cls-1" d="M184.37,122.54c21.99,3.84,54.85,12.38,68.21,31.48,20.39,34.41-57.13,49.71-79.33,51.51-40.6,4.14-81.84,2.71-121.9-5.15-10.05-2.12-20.02-4.67-29.54-8.65-4.85-2.02-9.58-4.47-13.56-7.99-15.19-13.4-7.43-30.5,7.33-40.23,8.55-5.81,18.18-9.54,27.82-12.96,14.46-4.94,29.21-8.83,44.1-12.14,4.97-1.05,9.95-2.03,14.96-2.91-19.8,4.45-39.4,9.91-58.34,17.02-9.35,3.57-18.81,7.4-26.99,13.2-7.56,5.47-15.19,13.7-13.72,23.64,3.69,27.65,85.68,32.69,108.87,33.78,30.2,1.1,60.76.11,90.33-6.44,90.32-21.88,44.7-61.45-18.24-74.17h0Z"/>
    </g>
  </g>
</svg>