<svg width="440" height="160" viewBox="0 0 440 160" fill="none" xmlns="http://www.w3.org/2000/svg">
<path d="M401.874 -47.7363C459.239 -47.7363 505.742 -1.23366 505.742 56.1309C505.742 113.496 459.239 159.999 401.874 159.999C381.112 159.999 361.774 153.906 345.547 143.412C329.32 153.906 309.982 159.999 289.22 159.999C265.836 159.999 244.258 152.271 226.898 139.231C209.539 152.271 187.961 159.999 164.578 159.999C140.608 159.999 118.535 151.878 100.958 138.239C83.3811 151.878 61.3089 159.999 37.3389 159.999C-20.0259 159.999 -66.5293 113.496 -66.5293 56.1309C-66.529 -1.23366 -20.0257 -47.7363 37.3389 -47.7363C61.3087 -47.7363 83.3812 -39.6161 100.958 -25.9775C118.535 -39.6162 140.608 -47.7363 164.578 -47.7363C187.961 -47.7362 209.539 -40.0092 226.898 -26.9697C244.258 -40.0095 265.836 -47.7363 289.22 -47.7363C309.982 -47.7363 329.32 -41.6438 345.547 -31.1504C361.774 -41.6438 381.112 -47.7363 401.874 -47.7363Z" fill="#816CC5"/>
</svg>
