<svg width="371" height="370" viewBox="0 0 371 370" fill="none" xmlns="http://www.w3.org/2000/svg">
<path d="M201.086 351.456L343.58 269.183L169.917 167.721L27.4219 249.995L201.086 351.456Z" fill="#816CC5"/>
<path opacity="0.8" d="M201.086 351.456L343.58 269.183L169.917 167.721L27.4219 249.995L201.086 351.456Z" fill="white"/>
<path d="M165.098 330.27C165.076 330.27 165.054 330.262 165.036 330.248C165.018 330.234 165.006 330.215 165 330.193C164.994 330.172 164.995 330.149 165.004 330.128C165.012 330.107 165.027 330.089 165.046 330.078L307.549 247.804C307.572 247.791 307.6 247.787 307.626 247.794C307.653 247.801 307.675 247.818 307.689 247.841C307.703 247.866 307.707 247.895 307.7 247.923C307.693 247.95 307.676 247.974 307.652 247.989L165.157 330.255C165.14 330.267 165.119 330.272 165.098 330.27Z" fill="#816CC5"/>
<path d="M114.905 300.825C114.886 300.825 114.867 300.821 114.85 300.812C114.833 300.803 114.819 300.79 114.808 300.773C114.797 300.749 114.796 300.72 114.804 300.695C114.812 300.669 114.83 300.647 114.853 300.633L257.348 218.359C257.372 218.348 257.4 218.347 257.426 218.355C257.452 218.363 257.474 218.38 257.488 218.404C257.506 218.423 257.516 218.448 257.516 218.474C257.516 218.5 257.506 218.525 257.488 218.544L114.956 300.818L114.905 300.825Z" fill="#816CC5"/>
<path d="M64.703 271.388C64.685 271.388 64.6673 271.383 64.6517 271.374C64.6361 271.365 64.6232 271.352 64.6142 271.336C64.596 271.316 64.5859 271.289 64.5859 271.262C64.5859 271.235 64.596 271.208 64.6142 271.188L207.146 188.922C207.169 188.912 207.195 188.911 207.219 188.919C207.243 188.927 207.263 188.943 207.276 188.965C207.289 188.987 207.293 189.013 207.288 189.037C207.283 189.062 207.27 189.084 207.25 189.1L64.7548 271.373L64.703 271.388Z" fill="#816CC5"/>
<g opacity="0.6">
<path d="M165.098 330.27C165.076 330.269 165.054 330.262 165.036 330.248C165.018 330.234 165.006 330.215 165 330.193C164.994 330.171 164.995 330.148 165.004 330.127C165.012 330.106 165.027 330.089 165.046 330.077L307.549 247.804C307.572 247.79 307.6 247.787 307.626 247.793C307.653 247.8 307.675 247.817 307.689 247.841C307.703 247.865 307.707 247.895 307.7 247.922C307.693 247.95 307.676 247.973 307.652 247.989L165.157 330.255C165.14 330.267 165.119 330.272 165.098 330.27Z" fill="white"/>
<path d="M114.905 300.825C114.886 300.825 114.867 300.821 114.85 300.812C114.833 300.803 114.819 300.79 114.808 300.773C114.797 300.749 114.796 300.72 114.804 300.695C114.812 300.669 114.83 300.647 114.853 300.633L257.348 218.359C257.372 218.348 257.4 218.347 257.426 218.355C257.452 218.363 257.474 218.38 257.488 218.404C257.506 218.423 257.516 218.448 257.516 218.474C257.516 218.5 257.506 218.525 257.488 218.544L114.956 300.818L114.905 300.825Z" fill="white"/>
<path d="M64.703 271.388C64.685 271.388 64.6673 271.383 64.6517 271.374C64.6361 271.365 64.6232 271.352 64.6142 271.336C64.596 271.316 64.5859 271.289 64.5859 271.262C64.5859 271.235 64.596 271.208 64.6142 271.188L207.146 188.922C207.169 188.912 207.195 188.911 207.219 188.919C207.243 188.927 207.263 188.943 207.276 188.965C207.289 188.987 207.293 189.013 207.288 189.037C207.283 189.062 207.27 189.084 207.25 189.1L64.7548 271.373L64.703 271.388Z" fill="white"/>
</g>
<path d="M248.358 325.718C248.377 325.717 248.397 325.711 248.413 325.701C248.43 325.691 248.444 325.676 248.454 325.659C248.466 325.635 248.469 325.608 248.462 325.582C248.455 325.556 248.439 325.534 248.417 325.518L71.6971 223.48C71.6724 223.466 71.6433 223.462 71.6157 223.469C71.5882 223.476 71.5644 223.493 71.5491 223.517C71.5427 223.529 71.5388 223.542 71.5375 223.556C71.5363 223.569 71.5378 223.583 71.5419 223.596C71.5461 223.609 71.5527 223.621 71.5616 223.632C71.5704 223.642 71.5813 223.651 71.5935 223.657L248.306 325.733L248.358 325.718Z" fill="#816CC5"/>
<path d="M298.559 296.274C298.578 296.273 298.596 296.268 298.613 296.259C298.629 296.25 298.644 296.237 298.655 296.222C298.666 296.196 298.668 296.167 298.66 296.14C298.652 296.113 298.634 296.089 298.611 296.074L121.898 194.005C121.873 193.992 121.844 193.988 121.817 193.995C121.789 194.001 121.765 194.019 121.75 194.042C121.737 194.066 121.733 194.094 121.74 194.12C121.747 194.147 121.764 194.169 121.787 194.183L298.507 296.259L298.559 296.274Z" fill="#816CC5"/>
<g opacity="0.6">
<path d="M248.356 325.719C248.376 325.718 248.395 325.712 248.411 325.701C248.428 325.691 248.442 325.677 248.452 325.66C248.464 325.636 248.467 325.608 248.46 325.582C248.453 325.557 248.437 325.534 248.415 325.519L71.6951 223.48C71.6704 223.466 71.6413 223.462 71.6138 223.469C71.5863 223.476 71.5624 223.493 71.5471 223.517C71.5407 223.529 71.5368 223.542 71.5356 223.556C71.5343 223.57 71.5358 223.584 71.54 223.597C71.5441 223.61 71.5508 223.622 71.5596 223.632C71.5685 223.643 71.5793 223.651 71.5915 223.658L248.304 325.734L248.356 325.719Z" fill="white"/>
<path d="M298.559 296.274C298.578 296.273 298.596 296.268 298.613 296.259C298.629 296.25 298.644 296.238 298.655 296.222C298.666 296.197 298.668 296.167 298.66 296.14C298.652 296.113 298.634 296.09 298.611 296.074L121.898 194.006C121.873 193.992 121.844 193.988 121.817 193.995C121.789 194.002 121.765 194.019 121.75 194.043C121.737 194.067 121.733 194.095 121.74 194.121C121.747 194.147 121.764 194.17 121.787 194.184L298.507 296.259L298.559 296.274Z" fill="white"/>
</g>
<path d="M201.086 359.137L343.581 276.864V269.183L201.086 351.456V359.137Z" fill="#816CC5"/>
<path opacity="0.4" d="M201.086 359.137L343.581 276.864V269.183L201.086 351.456V359.137Z" fill="white"/>
<path d="M201.086 359.138V351.456L27.4219 249.995V257.676L201.086 359.138Z" fill="#816CC5"/>
<path opacity="0.6" d="M201.086 359.138V351.456L27.4219 249.995V257.676L201.086 359.138Z" fill="white"/>
<path opacity="0.1" d="M152.823 305.479C175.17 305.479 193.286 295.02 193.286 282.117C193.286 269.215 175.17 258.755 152.823 258.755C130.475 258.755 112.359 269.215 112.359 282.117C112.359 295.02 130.475 305.479 152.823 305.479Z" fill="black"/>
<path opacity="0.1" d="M249.866 284.478C272.213 284.478 290.329 274.019 290.329 261.116C290.329 248.214 272.213 237.754 249.866 237.754C227.518 237.754 209.402 248.214 209.402 261.116C209.402 274.019 227.518 284.478 249.866 284.478Z" fill="black"/>
<path opacity="0.1" d="M174.594 245.939C196.941 245.939 215.057 235.48 215.057 222.577C215.057 209.675 196.941 199.215 174.594 199.215C152.247 199.215 134.131 209.675 134.131 222.577C134.131 235.48 152.247 245.939 174.594 245.939Z" fill="black"/>
<path d="M102.517 162.393L92.8972 159.552L88.5608 167.048C88.3056 166.696 87.9426 166.437 87.5268 166.31C87.111 166.183 86.6651 166.195 86.2568 166.344C85.8486 166.494 85.5001 166.772 85.2644 167.138C85.0287 167.503 84.9186 167.935 84.9508 168.369C84.983 168.802 85.1557 169.214 85.4427 169.54C85.7297 169.867 86.1155 170.091 86.5413 170.178C86.9672 170.265 87.4099 170.212 87.8024 170.025C88.1949 169.838 88.5158 169.528 88.7162 169.142L92.9416 162.393L100.001 164.236L96.4937 170.985C96.2312 170.649 95.8678 170.406 95.457 170.292C95.0462 170.178 94.6096 170.199 94.2115 170.352C93.8135 170.504 93.475 170.781 93.2459 171.141C93.0169 171.5 92.9093 171.924 92.9391 172.349C92.9688 172.774 93.1344 173.179 93.4113 173.503C93.6883 173.827 94.062 174.054 94.4774 174.15C94.8929 174.246 95.3281 174.205 95.719 174.035C96.11 173.865 96.436 173.574 96.649 173.205L102.517 162.393Z" fill="#816CC5"/>
<path d="M85.1948 138.721C85.9183 138.694 86.615 138.44 87.1861 137.995C87.7572 137.55 88.1738 136.937 88.3768 136.242C87.4179 136.678 86.3632 136.861 85.3132 136.775C83.8924 136.545 81.887 135.124 77.7578 138.425L83.626 148.785C83.4433 148.748 83.2573 148.731 83.071 148.733C82.4838 148.724 81.9072 148.89 81.4146 149.21C80.922 149.53 80.5357 149.989 80.3049 150.529C80.074 151.069 80.009 151.666 80.1182 152.243C80.2273 152.82 80.5057 153.351 80.9178 153.77C81.33 154.188 81.8573 154.475 82.4326 154.592C83.008 154.71 83.6054 154.654 84.1489 154.432C84.6923 154.209 85.1573 153.83 85.4845 153.342C85.8118 152.854 85.9866 152.28 85.9866 151.693C85.9889 151.412 85.9489 151.133 85.8682 150.864C85.815 150.666 85.738 150.474 85.6388 150.294L80.3034 140.882C80.9331 140.213 81.6903 139.677 82.5304 139.306C83.3705 138.935 84.2765 138.736 85.1948 138.721Z" fill="#816CC5"/>
<path d="M291.478 190.181L285.646 193.696L287.4 199.334C287.189 199.31 286.975 199.337 286.775 199.411C286.576 199.486 286.397 199.607 286.253 199.764C286.035 200.033 285.927 200.376 285.953 200.722C285.978 201.068 286.135 201.392 286.391 201.626C286.647 201.86 286.983 201.988 287.33 201.983C287.678 201.978 288.01 201.841 288.259 201.599C288.424 201.414 288.536 201.187 288.582 200.944C288.629 200.7 288.61 200.448 288.525 200.215L287.045 194.998L291.211 192.297L292.995 197.159C292.79 197.142 292.585 197.172 292.394 197.246C292.203 197.32 292.031 197.437 291.892 197.588C291.728 197.763 291.614 197.978 291.56 198.211C291.506 198.444 291.514 198.688 291.584 198.917C291.654 199.146 291.783 199.352 291.958 199.515C292.134 199.678 292.349 199.792 292.582 199.846C292.816 199.899 293.059 199.89 293.288 199.82C293.516 199.749 293.723 199.619 293.885 199.444C294.048 199.268 294.161 199.052 294.214 198.819C294.267 198.585 294.257 198.342 294.186 198.113L291.478 190.181Z" fill="#816CC5"/>
<path d="M308.098 169.704C308.792 169.909 309.533 169.892 310.217 169.654C310.9 169.417 311.492 168.971 311.909 168.38C310.86 168.486 309.8 168.323 308.831 167.906C307.565 167.225 306.122 165.242 301.142 167.048L303.362 178.747C303.2 178.655 303.029 178.581 302.852 178.525C302.304 178.339 301.713 178.319 301.154 178.468C300.596 178.618 300.094 178.93 299.712 179.364C299.33 179.799 299.087 180.338 299.011 180.911C298.936 181.485 299.032 182.068 299.289 182.587C299.545 183.105 299.949 183.536 300.451 183.825C300.952 184.114 301.528 184.247 302.105 184.209C302.682 184.17 303.235 183.961 303.693 183.608C304.152 183.255 304.495 182.773 304.679 182.225C304.766 181.962 304.818 181.688 304.835 181.411C304.846 181.203 304.831 180.994 304.79 180.789L302.763 170.163C303.576 169.733 304.467 169.471 305.384 169.392C306.3 169.313 307.224 169.419 308.098 169.704Z" fill="#816CC5"/>
<path d="M132.023 92.8257L123.283 97.6801L125.577 106.057C125.149 105.993 124.712 106.07 124.331 106.277C123.951 106.484 123.648 106.809 123.469 107.203C123.291 107.598 123.245 108.04 123.34 108.462C123.435 108.884 123.665 109.264 123.995 109.544C124.326 109.824 124.738 109.989 125.171 110.013C125.603 110.037 126.032 109.92 126.391 109.679C126.751 109.437 127.022 109.086 127.163 108.676C127.305 108.267 127.309 107.823 127.176 107.411L125.311 99.6633L131.571 95.9115L133.932 103.141C133.51 103.095 133.084 103.185 132.717 103.397C132.349 103.61 132.06 103.935 131.89 104.324C131.72 104.713 131.679 105.146 131.773 105.56C131.866 105.974 132.09 106.347 132.411 106.625C132.732 106.903 133.133 107.071 133.557 107.104C133.98 107.138 134.403 107.035 134.763 106.812C135.124 106.588 135.404 106.255 135.562 105.861C135.72 105.467 135.748 105.032 135.641 104.621L132.023 92.8257Z" fill="#816CC5"/>
<path d="M144.409 74.9697C144.869 75.1068 145.359 75.0963 145.812 74.9397C146.265 74.783 146.657 74.488 146.933 74.0965C146.238 74.167 145.538 74.0574 144.898 73.7783C144.062 73.3343 143.107 72.0171 139.814 73.2085L141.294 80.9489C141.187 80.8907 141.076 80.8412 140.961 80.8009C140.573 80.6639 140.151 80.653 139.756 80.77C139.361 80.8869 139.014 81.1257 138.763 81.4521C138.511 81.7785 138.37 82.1758 138.358 82.5875C138.346 82.9991 138.465 83.4039 138.697 83.7441C138.929 84.0843 139.263 84.3424 139.65 84.4817C140.038 84.6209 140.46 84.6342 140.855 84.5195C141.251 84.4048 141.6 84.1681 141.853 83.8432C142.106 83.5182 142.249 83.1216 142.263 82.7101C142.278 82.5748 142.278 82.4384 142.263 82.3031L140.917 75.2805C141.449 74.9991 142.032 74.8267 142.632 74.7733C143.232 74.7199 143.836 74.7867 144.409 74.9697Z" fill="#816CC5"/>
<path d="M227.933 114.434C228.31 114.942 228.837 115.319 229.44 115.512C230.043 115.704 230.691 115.703 231.293 115.507C230.504 115.031 229.849 114.361 229.391 113.561C228.858 112.421 228.895 110.282 224.478 108.928L219.897 118.267C219.832 118.119 219.753 117.978 219.66 117.845C219.375 117.428 218.973 117.104 218.505 116.916C218.036 116.727 217.522 116.681 217.028 116.785C216.533 116.889 216.081 117.136 215.727 117.497C215.374 117.858 215.135 118.316 215.042 118.812C214.949 119.309 215.005 119.822 215.203 120.286C215.402 120.751 215.733 121.146 216.156 121.422C216.58 121.698 217.075 121.842 217.58 121.837C218.085 121.831 218.577 121.675 218.994 121.39C219.194 121.253 219.373 121.088 219.527 120.901C219.643 120.763 219.743 120.612 219.823 120.45L223.982 111.947C224.773 112.078 225.53 112.365 226.209 112.792C226.887 113.219 227.474 113.777 227.933 114.434Z" fill="#816CC5"/>
<path d="M239.706 134.554C241.888 134.554 243.657 132.785 243.657 130.602C243.657 128.42 241.888 126.651 239.706 126.651C237.523 126.651 235.754 128.42 235.754 130.602C235.754 132.785 237.523 134.554 239.706 134.554Z" fill="#263238"/>
<path d="M241.09 128.464C243.273 128.464 245.042 126.695 245.042 124.512C245.042 122.33 243.273 120.561 241.09 120.561C238.908 120.561 237.139 122.33 237.139 124.512C237.139 126.695 238.908 128.464 241.09 128.464Z" fill="#263238"/>
<path d="M249.733 143.079C255.957 143.079 261.003 138.033 261.003 131.809C261.003 125.584 255.957 120.539 249.733 120.539C243.509 120.539 238.463 125.584 238.463 131.809C238.463 138.033 243.509 143.079 249.733 143.079Z" fill="#263238"/>
<path d="M255.394 139.512C255.394 139.512 261.67 153.387 243.673 153.387C225.676 153.387 229.006 146.364 222.331 146.364C220.668 146.415 219.091 147.113 217.936 148.311C217.936 148.311 218.594 141.184 226.009 141.184C233.424 141.184 239.255 147.578 241.838 137.958L255.394 139.512Z" fill="#263238"/>
<path d="M257.223 123.58C257.529 123.228 257.756 122.815 257.89 122.368C258.024 121.922 258.061 121.452 258 120.99C257.874 119.251 259.48 120.509 259.65 121.508C259.637 122.098 259.459 122.673 259.136 123.168C258.813 123.662 258.358 124.056 257.822 124.305L257.223 123.58Z" fill="#263238"/>
<path d="M257.823 123.95C258.289 123.973 258.755 123.897 259.19 123.727C259.625 123.558 260.019 123.298 260.346 122.966C261.634 121.789 261.649 123.854 260.953 124.579C260.48 124.933 259.918 125.147 259.329 125.198C258.741 125.249 258.15 125.135 257.623 124.868L257.823 123.95Z" fill="#263238"/>
<path d="M274.406 250.068C274.406 250.068 275.294 256.225 276.922 257.505C277.547 258.205 277.94 259.081 278.046 260.014C278.046 261.265 275.205 264.062 275.205 266.186C275.205 268.309 274.82 272.165 274.82 272.165L267.864 271.062C267.864 271.062 268.774 260.502 268.263 258.06C267.753 255.618 266.613 251.275 266.613 251.275L274.406 250.068Z" fill="#FFA8A7"/>
<path d="M276.922 257.52C277.07 257.849 277.125 258.213 277.079 258.571C277.033 258.928 276.889 259.267 276.663 259.548C275.332 261.3 274.559 263.411 274.443 265.608C273.984 270.611 273.74 271.965 270.802 271.528L267.842 271.084C267.842 271.084 263.669 275.894 263.78 276.657C263.891 277.419 265.348 278.225 269.085 277.434C272.822 276.642 275.908 275.214 276.226 271.24C276.545 267.266 276.907 264.891 277.41 264.232L279.12 269.264C279.351 269.417 279.63 269.479 279.904 269.436C280.178 269.394 280.426 269.251 280.6 269.035L279.527 262.042C279.527 262.042 278.705 257.246 276.878 257.528L276.922 257.52Z" fill="#263238"/>
<path d="M234.186 240.374C234.186 240.374 229.687 241.854 229.687 248.218C229.687 254.583 222.287 249.047 222.287 249.047L224.507 243.519C225.598 240.769 225.747 237.735 224.929 234.891L224.263 232.597L220.955 221.134L230.901 218.737C230.901 218.737 231.034 221.793 230.975 224.894C230.913 227.018 231.162 229.139 231.715 231.191L234.186 240.374Z" fill="#FFA8A7"/>
<path d="M233.268 237.007C233.366 237.354 233.365 237.721 233.266 238.068C233.167 238.414 232.973 238.726 232.706 238.968C231.129 240.505 230.045 242.475 229.591 244.629C228.384 249.499 227.933 250.801 225.099 249.92L222.265 249.04C222.265 249.04 217.41 253.169 217.41 253.939C217.41 254.708 218.72 255.722 222.538 255.507C226.357 255.293 229.613 254.36 230.53 250.461C231.448 246.561 232.166 244.289 232.75 243.712L233.683 248.944C233.888 249.138 234.159 249.246 234.441 249.246C234.724 249.246 234.995 249.138 235.2 248.944V241.869C235.2 241.869 235.111 237.007 233.261 237.007H233.268Z" fill="#263238"/>
<path d="M238.583 179.479L238.294 182.854C238.294 182.854 221.651 197.654 218.218 202.834C215.998 206.194 220.919 221.127 220.919 221.127C220.919 221.127 226.876 223.265 230.864 218.729C230.663 215.528 230.036 212.367 229 209.331L247.389 196.5L246.649 179.805L238.583 179.479Z" fill="#37474F"/>
<path d="M245.125 192.489C245.125 192.489 242.165 189.714 241.018 186.769C241.018 186.769 241.018 188.937 244.2 193.325L245.879 197.565L247.359 196.507L245.125 192.489Z" fill="#263238"/>
<path d="M205.067 185.91C205.067 185.91 202.396 188.463 201.848 189.122C201.301 189.78 201.175 190.306 202.263 190.298C203.351 190.291 206.621 187.035 206.621 187.035L212.319 188.515C212.319 188.515 213.637 187.346 215.731 183.72L208.553 183.446L205.067 185.91Z" fill="#FFA8A7"/>
<path d="M211.705 180.626C211.705 180.626 207.894 181.588 206.777 182.365C205.659 183.142 205.378 184.874 204.66 185.607C203.943 186.339 204.261 187.013 205.304 186.813C206.348 186.613 207.369 185.007 207.369 185.007C208.212 185.359 209.137 185.472 210.04 185.333C211.195 185.022 215.731 183.749 215.731 183.749L211.705 180.626Z" fill="#FFA8A7"/>
<path d="M204.956 186.924C204.814 186.946 204.668 186.927 204.537 186.868C204.405 186.808 204.294 186.712 204.216 186.591C204.203 186.577 204.195 186.558 204.195 186.539C204.195 186.519 204.203 186.501 204.216 186.487C204.235 186.479 204.256 186.478 204.275 186.485C204.295 186.492 204.311 186.506 204.32 186.524C204.431 186.746 204.771 186.827 205.223 186.739C206.214 186.539 207.228 184.985 207.243 184.963C207.256 184.953 207.271 184.948 207.287 184.948C207.303 184.948 207.319 184.953 207.332 184.963C208.161 185.299 209.066 185.409 209.951 185.281C209.971 185.276 209.992 185.279 210.009 185.289C210.027 185.3 210.039 185.317 210.044 185.336C210.049 185.356 210.046 185.377 210.035 185.394C210.025 185.411 210.008 185.424 209.988 185.429C209.092 185.575 208.172 185.47 207.332 185.125C207.139 185.407 206.214 186.716 205.245 186.909C205.149 186.92 205.053 186.925 204.956 186.924Z" fill="#F28F8F"/>
<path d="M208.249 188.7C208.105 188.858 207.931 188.986 207.736 189.075C207.541 189.164 207.331 189.212 207.117 189.218C206.831 189.222 206.556 189.114 206.348 188.918C206.141 188.722 206.018 188.452 206.007 188.167C205.955 187.597 206.606 185.074 207.827 185.688C208.367 185.954 208.205 187.508 208.205 187.508L208.249 188.7Z" fill="#FFA8A7"/>
<path d="M206.053 187.752C206.043 187.751 206.034 187.747 206.026 187.742C206.017 187.736 206.01 187.729 206.005 187.721C205.999 187.712 205.995 187.703 205.993 187.693C205.992 187.683 205.992 187.673 205.994 187.664C206.105 187.057 206.468 185.932 207.111 185.614C207.226 185.555 207.353 185.525 207.481 185.525C207.61 185.525 207.737 185.555 207.851 185.614C208.429 185.902 208.273 187.442 208.266 187.508C208.265 187.518 208.262 187.527 208.257 187.536C208.253 187.545 208.247 187.552 208.239 187.559C208.231 187.565 208.223 187.569 208.213 187.572C208.204 187.575 208.194 187.576 208.184 187.575C208.165 187.572 208.147 187.562 208.133 187.547C208.12 187.532 208.112 187.513 208.11 187.493C208.155 187.072 208.184 185.947 207.777 185.747C207.681 185.695 207.573 185.667 207.463 185.667C207.353 185.667 207.245 185.695 207.148 185.747C206.565 186.238 206.194 186.935 206.112 187.693C206.109 187.708 206.101 187.721 206.091 187.731C206.08 187.741 206.067 187.749 206.053 187.752Z" fill="#F28F8F"/>
<path d="M209.921 189.093C209.776 189.25 209.601 189.376 209.407 189.465C209.212 189.554 209.002 189.604 208.789 189.611C208.504 189.613 208.229 189.505 208.022 189.309C207.815 189.113 207.692 188.845 207.679 188.56C207.627 187.99 208.278 185.459 209.499 186.081C210.15 186.407 209.876 187.901 209.876 187.901L209.921 189.093Z" fill="#FFA8A7"/>
<path d="M212.32 188.545C212.32 188.545 211.047 189.914 210.255 189.551C209.464 189.188 209.597 187.834 210.692 186.413C211.069 185.925 211.92 185.747 211.883 186.628C211.878 187.136 211.778 187.638 211.587 188.108L212.32 188.545Z" fill="#FFA8A7"/>
<path d="M207.784 189.04C207.77 189.04 207.756 189.035 207.744 189.027C207.732 189.02 207.723 189.008 207.717 188.995C207.657 188.859 207.619 188.714 207.606 188.566C207.569 188.137 207.917 186.561 208.657 186.065C208.783 185.972 208.933 185.917 209.09 185.908C209.246 185.899 209.402 185.935 209.538 186.013C210.233 186.361 209.959 187.848 209.952 187.908C209.951 187.918 209.948 187.928 209.943 187.938C209.938 187.947 209.931 187.955 209.923 187.961C209.914 187.967 209.905 187.972 209.894 187.974C209.884 187.976 209.873 187.976 209.863 187.974C209.853 187.973 209.844 187.969 209.836 187.963C209.827 187.958 209.82 187.951 209.815 187.942C209.809 187.934 209.805 187.925 209.804 187.915C209.802 187.905 209.802 187.895 209.804 187.885C209.804 187.885 210.063 186.45 209.471 186.146C209.361 186.074 209.233 186.036 209.101 186.036C208.969 186.036 208.841 186.074 208.731 186.146C208.12 186.786 207.772 187.631 207.754 188.514C207.762 188.648 207.795 188.778 207.85 188.899C207.854 188.909 207.856 188.918 207.855 188.928C207.855 188.938 207.853 188.948 207.848 188.957C207.844 188.966 207.838 188.974 207.831 188.98C207.824 188.987 207.815 188.992 207.806 188.995L207.784 189.04Z" fill="#F28F8F"/>
<path d="M209.811 189.115C209.795 189.113 209.78 189.108 209.767 189.099C209.754 189.09 209.744 189.077 209.737 189.063C209.522 188.397 209.863 187.368 210.632 186.362C210.742 186.207 210.893 186.087 211.069 186.016C211.245 185.945 211.438 185.926 211.624 185.962C211.757 186.007 211.979 186.162 211.964 186.628C211.955 187.137 211.849 187.639 211.654 188.108C211.644 188.123 211.629 188.133 211.613 188.138C211.596 188.143 211.578 188.142 211.562 188.135C211.546 188.127 211.533 188.115 211.526 188.099C211.518 188.084 211.516 188.066 211.52 188.049C211.7 187.594 211.798 187.11 211.809 186.621C211.809 186.428 211.809 186.177 211.572 186.103C211.416 186.078 211.255 186.098 211.11 186.161C210.965 186.224 210.84 186.327 210.751 186.458C210.011 187.42 209.678 188.397 209.885 189.018C209.888 189.028 209.89 189.038 209.889 189.049C209.888 189.059 209.885 189.069 209.88 189.078C209.875 189.087 209.869 189.095 209.861 189.101C209.853 189.108 209.843 189.112 209.833 189.115H209.811Z" fill="#F28F8F"/>
<path d="M241.328 148.54H240.876C239.581 148.558 238.307 148.873 237.153 149.461C235.998 150.048 234.993 150.893 234.216 151.929C232.144 154.689 223.501 167.306 223.501 167.306C223.501 167.306 216.501 174.751 211.713 180.627L215.738 183.749C215.738 183.749 229.059 172.242 230.139 171.014C231.219 169.786 236.636 162.874 236.636 162.874L241.328 148.54Z" fill="#FFA8A7"/>
<path d="M241.328 148.54H240.877C239.581 148.558 238.307 148.873 237.153 149.461C235.998 150.048 234.994 150.893 234.217 151.929C233.336 153.106 231.257 156.073 229.17 159.085C230.65 159.292 234.283 160.173 235.904 163.762L236.644 162.829L241.328 148.54Z" fill="#816CC5"/>
<path d="M253.582 148.259L257.874 148.592L257.371 170.688L257.119 171.843C256.838 173.19 256.838 174.58 257.119 175.927L257.393 177.267C257.393 177.267 247.973 182.055 238.797 177.267V153.92L241.816 148.599L246.256 148.325L253.582 148.259Z" fill="#FFA8A7"/>
<path d="M246.262 143.708V148.326C246.262 148.326 241.556 153.506 246.144 153.898C250.732 154.29 253.581 148.259 253.581 148.259V139.512L246.262 143.708Z" fill="#FFA8A7"/>
<path d="M253.522 137.995V138.262C251.887 144.714 247.602 146.12 246.263 146.453L246.182 136.456L253.286 136.419L253.522 137.995Z" fill="#F28F8F"/>
<path d="M246.722 123.617C244.014 123.839 238.375 125.837 238.286 132.971C238.197 140.104 239.3 145.551 243.007 145.802C246.715 146.054 254.988 142.679 255.373 133.407C255.758 124.135 249.371 123.402 246.722 123.617Z" fill="#FFA8A7"/>
<path d="M243.296 135.842L243.362 140.045L240.891 139.327L243.296 135.842Z" fill="#F28F8F"/>
<path d="M246.982 135.731C246.985 135.901 246.938 136.068 246.845 136.211C246.753 136.354 246.621 136.466 246.464 136.534C246.308 136.601 246.136 136.621 245.968 136.59C245.801 136.559 245.647 136.479 245.525 136.361C245.403 136.242 245.319 136.09 245.284 135.923C245.249 135.757 245.264 135.584 245.327 135.426C245.391 135.268 245.5 135.133 245.64 135.037C245.781 134.941 245.946 134.889 246.116 134.887C246.229 134.885 246.341 134.906 246.445 134.947C246.549 134.989 246.645 135.05 246.725 135.129C246.806 135.207 246.87 135.301 246.914 135.404C246.958 135.507 246.981 135.619 246.982 135.731Z" fill="#263238"/>
<path d="M241.35 135.212C241.33 135.425 241.231 135.623 241.073 135.767C240.915 135.911 240.709 135.991 240.495 135.991C240.281 135.991 240.075 135.911 239.917 135.767C239.759 135.623 239.66 135.425 239.64 135.212C239.629 135.094 239.643 134.974 239.681 134.86C239.719 134.747 239.78 134.643 239.861 134.555C239.941 134.466 240.039 134.396 240.148 134.348C240.258 134.299 240.376 134.274 240.495 134.274C240.615 134.274 240.733 134.299 240.842 134.348C240.951 134.396 241.049 134.466 241.13 134.555C241.21 134.643 241.271 134.747 241.309 134.86C241.347 134.974 241.361 135.094 241.35 135.212Z" fill="#263238"/>
<path d="M239.425 133.459L241.09 132.445C241.09 132.445 240.439 131.787 239.802 132.194C239.619 132.342 239.485 132.542 239.418 132.768C239.351 132.994 239.353 133.235 239.425 133.459Z" fill="#816CC5"/>
<path d="M242.809 141.503C243.677 141.09 244.52 140.626 245.332 140.111C245.332 140.111 245.872 141.488 244.747 142.058C244.41 142.203 244.032 142.228 243.679 142.126C243.325 142.025 243.018 141.805 242.809 141.503Z" fill="#F28F8F"/>
<path d="M239.425 133.459L241.09 132.445C241.09 132.445 240.439 131.787 239.802 132.194C239.619 132.342 239.485 132.542 239.418 132.768C239.351 132.994 239.353 133.235 239.425 133.459Z" fill="#263238"/>
<path d="M251.191 135.346C251.191 135.346 251.028 138.358 252.76 138.358H256.157V132.615C256.157 126.185 251.273 119.465 240.89 124.779C240.89 124.779 240.387 133.363 251.191 135.346Z" fill="#263238"/>
<path d="M252.747 138.002C252.724 137.348 252.85 136.698 253.117 136.1C253.246 135.726 253.483 135.398 253.798 135.157C254.112 134.917 254.49 134.774 254.885 134.746C256.906 134.709 257.157 136.655 257.105 137.351C257.02 138.423 256.522 139.421 255.716 140.133C254.91 140.845 253.859 141.217 252.784 141.169L252.747 138.002Z" fill="#FFA8A7"/>
<path d="M243.665 148.481C243.665 148.481 243.377 148.895 242.977 149.531C242.642 150.065 242.452 150.677 242.427 151.307C242.401 151.936 242.541 152.562 242.832 153.12C243.123 153.679 243.555 154.152 244.086 154.492C244.616 154.833 245.226 155.028 245.856 155.059L247.587 155.148C248.931 155.222 250.265 154.88 251.408 154.169C252.55 153.458 253.446 152.413 253.974 151.174C254.358 150.176 254.898 149.245 255.572 148.414L257.896 148.592L260.323 158.596L258.103 170.688C258.103 170.688 246.647 174.906 238.012 170.688C238.012 170.688 238.071 166.848 237.73 165.693C237.73 165.693 234.97 164.761 234.77 160.972C234.519 155.91 241.342 148.54 241.342 148.54L243.665 148.481Z" fill="#816CC5"/>
<path opacity="0.2" d="M243.665 148.481C243.665 148.481 243.377 148.895 242.977 149.531C242.642 150.065 242.452 150.677 242.427 151.307C242.401 151.936 242.541 152.562 242.832 153.12C243.123 153.679 243.555 154.152 244.086 154.492C244.616 154.833 245.226 155.028 245.856 155.059L247.587 155.148C248.931 155.222 250.265 154.88 251.408 154.169C252.55 153.458 253.446 152.413 253.974 151.174C254.358 150.176 254.898 149.245 255.572 148.414L257.896 148.592L260.323 158.596L258.103 170.688C258.103 170.688 246.647 174.906 238.012 170.688C238.012 170.688 238.071 166.848 237.73 165.693C237.73 165.693 234.97 164.761 234.77 160.972C234.519 155.91 241.342 148.54 241.342 148.54L243.665 148.481Z" fill="black"/>
<path d="M257.897 148.592C257.897 148.592 252.961 156.244 260.324 158.597C264.246 159.855 271.661 160.277 275.79 160.417C276.67 160.446 277.54 160.226 278.301 159.782C279.062 159.339 279.682 158.689 280.089 157.909L287.489 143.76L283.553 140.526C283.553 140.526 278.321 147.586 275.76 151.937C275.783 151.937 260.242 148.74 257.897 148.592Z" fill="#FFA8A7"/>
<path d="M260.324 158.597C262.679 159.247 265.089 159.676 267.524 159.877C266.967 158.343 266.728 156.712 266.819 155.083C266.911 153.453 267.332 151.859 268.057 150.397L264.638 149.739L257.897 148.592C257.897 148.592 252.961 156.243 260.324 158.597Z" fill="#816CC5"/>
<path d="M287.26 132.875C287.26 132.875 289.155 129.715 289.673 129.034C290.191 128.353 290.679 128.116 290.916 129.175C291.153 130.233 288.696 134.147 288.696 134.147L291.426 139.372C291.426 139.372 290.575 140.911 287.504 143.76L285.654 136.819L287.26 132.875Z" fill="#FFA8A7"/>
<path d="M283.566 140.526C283.566 140.526 283.663 136.589 284.173 135.346C284.684 134.103 286.319 133.429 286.867 132.563C287.414 131.698 288.154 131.823 288.184 132.926C288.214 134.029 286.882 135.346 286.882 135.346C287.411 136.087 287.723 136.961 287.784 137.869C287.74 139.061 287.503 143.789 287.503 143.789L283.566 140.526Z" fill="#FFA8A7"/>
<path d="M287.785 137.929C287.776 137.929 287.766 137.927 287.757 137.923C287.748 137.92 287.74 137.914 287.733 137.907C287.726 137.9 287.721 137.892 287.717 137.883C287.713 137.874 287.711 137.865 287.711 137.855C287.65 136.962 287.342 136.104 286.823 135.376C286.811 135.361 286.805 135.343 286.805 135.324C286.805 135.305 286.811 135.287 286.823 135.272C286.823 135.272 288.133 133.925 288.103 132.912C288.103 132.453 287.941 132.172 287.696 132.083C287.687 132.081 287.678 132.078 287.669 132.072C287.661 132.066 287.655 132.059 287.65 132.051C287.645 132.042 287.642 132.033 287.641 132.023C287.64 132.013 287.641 132.003 287.645 131.994C287.646 131.984 287.65 131.975 287.656 131.967C287.661 131.958 287.668 131.951 287.676 131.946C287.685 131.94 287.694 131.936 287.704 131.934C287.714 131.933 287.724 131.933 287.733 131.935C288.044 132.016 288.237 132.379 288.251 132.904C288.251 133.888 287.208 135.124 286.971 135.339C287.499 136.079 287.807 136.954 287.859 137.862C287.856 137.88 287.847 137.896 287.834 137.908C287.82 137.92 287.803 137.928 287.785 137.929Z" fill="#F28F8F"/>
<path d="M290.678 135.368C290.8 135.191 290.885 134.993 290.929 134.783C290.972 134.573 290.972 134.357 290.93 134.147C290.871 133.868 290.705 133.625 290.469 133.467C290.233 133.309 289.944 133.25 289.664 133.303C289.095 133.37 286.778 134.561 287.652 135.619C288.029 136.085 289.502 135.582 289.502 135.582L290.678 135.368Z" fill="#FFA8A7"/>
<path d="M288.266 135.894C288.144 135.906 288.021 135.893 287.905 135.855C287.789 135.817 287.683 135.754 287.592 135.672C287.503 135.573 287.439 135.454 287.407 135.325C287.375 135.196 287.375 135.061 287.407 134.932C287.578 134.236 288.591 133.629 289.161 133.392C289.17 133.386 289.18 133.382 289.191 133.381C289.202 133.379 289.213 133.38 289.223 133.383C289.233 133.386 289.243 133.391 289.251 133.398C289.259 133.405 289.266 133.414 289.27 133.424C289.275 133.434 289.277 133.444 289.277 133.455C289.276 133.466 289.274 133.477 289.269 133.486C289.264 133.496 289.257 133.505 289.249 133.511C289.241 133.518 289.231 133.523 289.22 133.526C288.48 133.829 287.689 134.406 287.548 134.969C287.522 135.076 287.523 135.188 287.55 135.295C287.577 135.402 287.63 135.501 287.703 135.583C287.992 135.931 289.087 135.657 289.479 135.524C289.498 135.517 289.519 135.518 289.537 135.526C289.555 135.534 289.569 135.549 289.576 135.568C289.582 135.587 289.582 135.607 289.573 135.625C289.565 135.643 289.55 135.657 289.531 135.664C289.122 135.799 288.696 135.876 288.266 135.894Z" fill="#F28F8F"/>
<path d="M291.426 136.9C291.548 136.723 291.634 136.525 291.679 136.315C291.723 136.105 291.725 135.889 291.685 135.679C291.625 135.401 291.459 135.159 291.223 135.001C290.987 134.844 290.699 134.784 290.42 134.835C289.843 134.902 287.526 136.1 288.4 137.151C288.866 137.714 290.257 137.114 290.257 137.114L291.426 136.9Z" fill="#FFA8A7"/>
<path d="M291.427 139.371C291.427 139.371 292.477 137.825 291.952 137.151C291.427 136.478 290.132 136.892 288.992 138.269C288.6 138.742 288.615 139.616 289.466 139.386C289.951 139.267 290.41 139.059 290.82 138.772L291.427 139.371Z" fill="#FFA8A7"/>
<path d="M289.058 137.485C288.922 137.499 288.785 137.483 288.657 137.437C288.528 137.391 288.412 137.316 288.318 137.218C288.213 137.101 288.143 136.957 288.117 136.803C288.091 136.648 288.109 136.49 288.17 136.345C288.503 135.516 289.953 134.828 290.39 134.769C290.537 134.746 290.686 134.746 290.834 134.769C290.843 134.77 290.853 134.774 290.861 134.78C290.869 134.785 290.877 134.792 290.882 134.8C290.888 134.809 290.891 134.818 290.893 134.828C290.895 134.838 290.895 134.848 290.893 134.858C290.891 134.867 290.887 134.877 290.882 134.885C290.876 134.893 290.869 134.9 290.861 134.906C290.853 134.912 290.843 134.915 290.834 134.917C290.824 134.919 290.814 134.919 290.804 134.917C290.674 134.894 290.542 134.894 290.412 134.917C289.552 135.128 288.804 135.657 288.318 136.397C288.263 136.519 288.245 136.654 288.268 136.786C288.29 136.918 288.351 137.04 288.443 137.137C288.865 137.647 290.197 137.085 290.212 137.078C290.23 137.07 290.25 137.07 290.268 137.077C290.286 137.083 290.3 137.097 290.308 137.115C290.32 137.129 290.327 137.147 290.327 137.166C290.327 137.185 290.32 137.204 290.308 137.218C289.91 137.378 289.487 137.468 289.058 137.485Z" fill="#F28F8F"/>
<path d="M289.205 139.49C289.116 139.496 289.027 139.478 288.947 139.438C288.867 139.397 288.8 139.336 288.753 139.26C288.674 139.088 288.648 138.896 288.678 138.709C288.709 138.522 288.794 138.348 288.923 138.209C289.73 137.24 290.662 136.678 291.358 136.729C291.368 136.729 291.379 136.731 291.388 136.736C291.398 136.74 291.406 136.746 291.413 136.754C291.42 136.761 291.425 136.77 291.429 136.78C291.432 136.79 291.433 136.8 291.432 136.811C291.431 136.821 291.428 136.831 291.423 136.841C291.418 136.85 291.411 136.858 291.403 136.864C291.394 136.87 291.385 136.875 291.374 136.877C291.364 136.879 291.354 136.879 291.343 136.877C290.692 136.818 289.811 137.358 289.042 138.291C288.935 138.406 288.864 138.55 288.835 138.704C288.806 138.858 288.821 139.018 288.879 139.164C288.997 139.356 289.249 139.334 289.434 139.282C289.91 139.17 290.36 138.967 290.759 138.683C290.774 138.67 290.794 138.663 290.814 138.663C290.834 138.663 290.854 138.67 290.87 138.683C290.882 138.698 290.888 138.716 290.888 138.735C290.888 138.754 290.882 138.772 290.87 138.787C290.455 139.082 289.988 139.295 289.493 139.416C289.401 139.454 289.304 139.479 289.205 139.49Z" fill="#F28F8F"/>
<path d="M257.777 178.48C257.777 178.48 266.102 186.62 266.561 203.219C267.02 219.817 268.293 219.499 268.293 219.499C268.293 219.499 273.754 227.816 274.079 235.039C274.294 239.79 274.405 250.098 274.405 250.098C274.405 250.098 271.956 254.109 266.613 251.304L258.598 224.827L245.123 192.518V179.568L257.777 178.48Z" fill="#37474F"/>
<path d="M238.783 176.305C238.783 176.305 241.314 178.236 247.707 178.236C253.783 178.236 256.98 175.276 256.98 175.276L257.764 178.488C254.947 180.359 251.68 181.439 248.303 181.615C244.926 181.791 241.564 181.056 238.568 179.487L238.783 176.305Z" fill="#455A64"/>
<path d="M262.973 239.249L266.613 251.274C271.956 254.079 274.406 250.068 274.406 250.068C274.406 250.068 274.309 241.099 274.124 236.008C273.238 237.691 271.743 238.972 269.943 239.589C266.258 240.781 263.942 239.797 262.973 239.249Z" fill="#FFA8A7"/>
<path d="M168.864 83.6195C168.864 83.6195 163.839 81.8731 162.611 87.0235C161.382 92.1739 165.164 97.1763 159.48 98.8636C159.48 98.8636 162.825 101.646 165.77 96.4511L168.279 107.026C168.279 107.026 168.279 107.603 167.398 108.04C167.398 108.04 181.703 111.222 184.419 104.088C184.803 104.5 185.066 105.011 185.177 105.564C185.288 106.117 185.243 106.689 185.048 107.218C185.048 107.218 189.266 105.509 188.082 100.055C188.082 100.055 191.412 99.9588 192.203 97.2429C192.203 97.2429 186.868 97.5019 186.905 91.6115C186.942 84.8109 183.36 85.7951 183.36 85.7951C183.36 85.7951 178.987 79.3349 168.864 83.6195Z" fill="#263238"/>
<path d="M159.458 201.642C159.458 201.642 154.959 203.122 154.959 209.486C154.959 215.85 147.559 210.315 147.559 210.315L149.779 204.794C150.87 202.044 151.018 199.01 150.2 196.166L149.534 193.872L146.227 182.409L156.172 180.012C156.172 180.012 156.305 183.068 156.246 186.169C156.188 188.292 156.437 190.413 156.986 192.466L159.458 201.642Z" fill="#FFA8A7"/>
<path d="M158.54 198.32C158.637 198.667 158.636 199.034 158.536 199.38C158.437 199.726 158.243 200.038 157.977 200.281C156.397 201.814 155.312 203.786 154.862 205.942C153.656 210.811 153.204 212.113 150.37 211.233L147.536 210.352C147.536 210.352 142.682 214.474 142.682 215.251C142.682 216.028 143.991 217.034 147.81 216.82C151.628 216.605 154.884 215.673 155.802 211.773C156.719 207.873 157.437 205.601 158.022 205.024L158.954 210.256C159.159 210.45 159.431 210.558 159.713 210.558C159.995 210.558 160.266 210.45 160.471 210.256V203.182C160.471 203.182 160.382 198.32 158.532 198.32H158.54Z" fill="#263238"/>
<path d="M163.854 140.755L163.566 144.129C163.566 144.129 146.923 158.929 143.489 164.109C141.269 167.469 146.19 182.402 146.19 182.402C146.19 182.402 152.147 184.541 156.136 180.005C155.936 176.803 155.308 173.642 154.271 170.607L172.668 157.775L171.928 141.08L163.854 140.755Z" fill="#37474F"/>
<path d="M170.396 153.765C170.396 153.765 167.436 150.982 166.289 148.044C166.289 148.044 166.289 150.213 169.471 154.601L171.151 158.841L172.631 157.783L170.396 153.765Z" fill="#263238"/>
<path d="M130.339 147.186C130.339 147.186 127.668 149.739 127.12 150.39C126.572 151.041 126.447 151.574 127.534 151.567C128.622 151.559 131.893 148.311 131.893 148.311L137.591 149.791C137.591 149.791 138.908 148.621 141.002 144.995L133.824 144.722L130.339 147.186Z" fill="#FFA8A7"/>
<path d="M136.984 141.902C136.984 141.902 133.166 142.864 132.048 143.641C130.931 144.418 130.65 146.15 129.932 146.883C129.214 147.615 129.532 148.289 130.576 148.089C131.619 147.889 132.648 146.283 132.648 146.283C133.489 146.635 134.411 146.748 135.312 146.609C136.466 146.298 141.002 145.025 141.002 145.025L136.984 141.902Z" fill="#FFA8A7"/>
<path d="M130.228 148.199C130.092 148.215 129.953 148.191 129.829 148.133C129.705 148.074 129.6 147.982 129.525 147.866C129.511 147.852 129.504 147.834 129.504 147.815C129.504 147.795 129.511 147.777 129.525 147.763C129.54 147.751 129.558 147.744 129.577 147.744C129.596 147.744 129.614 147.751 129.629 147.763C129.74 147.985 130.08 148.059 130.531 147.977C131.523 147.778 132.544 146.216 132.552 146.201C132.564 146.192 132.58 146.187 132.596 146.187C132.612 146.187 132.628 146.192 132.64 146.201C133.467 146.55 134.374 146.662 135.26 146.527C135.28 146.522 135.3 146.525 135.318 146.534C135.336 146.544 135.35 146.56 135.356 146.579C135.361 146.599 135.357 146.621 135.346 146.639C135.335 146.657 135.317 146.67 135.297 146.675C134.4 146.824 133.479 146.716 132.64 146.364C132.455 146.653 131.523 147.963 130.561 148.155C130.451 148.178 130.34 148.193 130.228 148.199Z" fill="#F28F8F"/>
<path d="M133.52 149.975C133.377 150.133 133.202 150.261 133.007 150.35C132.813 150.439 132.602 150.488 132.388 150.493C132.103 150.495 131.829 150.387 131.622 150.191C131.415 149.995 131.292 149.727 131.278 149.442C131.226 148.873 131.878 146.349 133.099 146.963C133.639 147.23 133.476 148.784 133.476 148.784L133.52 149.975Z" fill="#FFA8A7"/>
<path d="M131.325 149.021C131.315 149.019 131.305 149.015 131.297 149.01C131.289 149.004 131.282 148.997 131.276 148.989C131.271 148.98 131.267 148.971 131.265 148.961C131.263 148.952 131.263 148.941 131.265 148.932C131.376 148.325 131.739 147.2 132.383 146.882C132.497 146.823 132.624 146.793 132.753 146.793C132.881 146.793 133.008 146.823 133.123 146.882C133.7 147.171 133.545 148.71 133.537 148.776C133.536 148.786 133.533 148.796 133.529 148.804C133.524 148.813 133.518 148.82 133.51 148.827C133.503 148.833 133.494 148.837 133.485 148.84C133.475 148.843 133.466 148.844 133.456 148.843C133.446 148.842 133.437 148.839 133.428 148.835C133.419 148.83 133.412 148.824 133.406 148.816C133.399 148.809 133.395 148.8 133.392 148.79C133.389 148.781 133.388 148.771 133.389 148.762C133.426 148.34 133.456 147.215 133.056 147.015C132.958 146.963 132.849 146.935 132.738 146.935C132.627 146.935 132.518 146.963 132.42 147.015C131.837 147.506 131.466 148.203 131.384 148.961C131.381 148.976 131.374 148.99 131.363 149C131.353 149.011 131.339 149.018 131.325 149.021Z" fill="#F28F8F"/>
<path d="M135.178 150.368C135.033 150.525 134.858 150.652 134.664 150.74C134.469 150.829 134.259 150.879 134.046 150.886C133.761 150.89 133.486 150.782 133.28 150.586C133.074 150.389 132.953 150.12 132.943 149.835C132.884 149.258 133.535 146.734 134.756 147.356C135.407 147.682 135.134 149.169 135.134 149.169L135.178 150.368Z" fill="#FFA8A7"/>
<path d="M137.591 149.82C137.591 149.82 136.318 151.189 135.527 150.826C134.735 150.464 134.875 149.102 135.963 147.681C136.341 147.2 137.192 147.015 137.162 147.903C137.153 148.411 137.05 148.913 136.859 149.383L137.591 149.82Z" fill="#FFA8A7"/>
<path d="M133.055 150.316C133.041 150.315 133.027 150.31 133.015 150.303C133.004 150.295 132.994 150.284 132.988 150.272C132.928 150.136 132.89 149.991 132.877 149.842C132.877 149.413 133.188 147.837 133.928 147.334C134.054 147.242 134.205 147.189 134.361 147.181C134.518 147.173 134.673 147.211 134.808 147.289C135.504 147.637 135.238 149.125 135.223 149.184C135.221 149.194 135.217 149.203 135.212 149.211C135.206 149.22 135.199 149.227 135.191 149.232C135.183 149.238 135.173 149.242 135.164 149.244C135.154 149.245 135.144 149.245 135.134 149.243C135.124 149.242 135.115 149.239 135.107 149.235C135.099 149.23 135.091 149.224 135.086 149.216C135.08 149.208 135.076 149.199 135.074 149.19C135.072 149.181 135.073 149.171 135.075 149.162C135.075 149.162 135.334 147.719 134.742 147.423C134.628 147.356 134.498 147.324 134.366 147.33C134.235 147.337 134.108 147.382 134.002 147.46C133.39 148.098 133.041 148.944 133.025 149.828C133.033 149.958 133.066 150.086 133.121 150.205C133.126 150.215 133.129 150.225 133.129 150.236C133.129 150.247 133.127 150.257 133.123 150.267C133.119 150.277 133.112 150.286 133.104 150.293C133.096 150.3 133.087 150.306 133.077 150.309L133.055 150.316Z" fill="#F28F8F"/>
<path d="M135.082 150.39C135.067 150.389 135.051 150.383 135.038 150.374C135.025 150.365 135.015 150.353 135.008 150.338C134.794 149.672 135.134 148.636 135.904 147.637C136.011 147.48 136.163 147.358 136.339 147.287C136.516 147.216 136.709 147.199 136.895 147.238C137.029 147.282 137.251 147.437 137.236 147.904C137.226 148.412 137.121 148.914 136.925 149.384C136.922 149.394 136.918 149.404 136.911 149.412C136.904 149.421 136.895 149.428 136.886 149.432C136.876 149.437 136.865 149.44 136.855 149.44C136.844 149.44 136.833 149.438 136.823 149.433C136.813 149.429 136.805 149.423 136.797 149.414C136.79 149.406 136.785 149.397 136.782 149.386C136.779 149.376 136.779 149.365 136.78 149.354C136.782 149.344 136.786 149.333 136.792 149.324C136.971 148.869 137.069 148.386 137.08 147.896C137.08 147.704 137.08 147.452 136.844 147.378C136.687 147.354 136.527 147.375 136.382 147.438C136.237 147.501 136.112 147.603 136.022 147.733C135.282 148.688 134.957 149.672 135.156 150.294C135.16 150.303 135.161 150.313 135.16 150.323C135.159 150.333 135.156 150.342 135.152 150.35C135.147 150.359 135.14 150.366 135.132 150.372C135.124 150.377 135.114 150.381 135.105 150.383L135.082 150.39Z" fill="#F28F8F"/>
<path d="M166.6 109.809H166.148C164.852 109.827 163.578 110.143 162.423 110.732C161.268 111.321 160.264 112.167 159.488 113.205C157.416 115.965 148.773 128.582 148.773 128.582C148.773 128.582 141.773 135.982 136.992 141.902L141.01 145.025C141.01 145.025 154.33 133.518 155.411 132.29C156.491 131.061 161.908 124.113 161.908 124.113L166.6 109.809Z" fill="#FFA8A7"/>
<path d="M178.875 109.52L183.174 109.853L182.664 131.949L182.42 133.103C182.131 134.45 182.131 135.842 182.42 137.188L182.686 138.528C182.686 138.528 173.266 143.315 164.09 138.528V115.188L167.109 109.875L171.549 109.601L178.875 109.52Z" fill="#FFA8A7"/>
<path d="M171.534 104.983V109.601C171.534 109.601 166.835 114.781 171.416 115.173C175.996 115.565 178.875 109.52 178.875 109.52V100.788L171.534 104.983Z" fill="#FFA8A7"/>
<path d="M178.794 99.2702V99.5366C177.158 105.989 172.874 107.395 171.534 107.721L171.482 97.731H178.586L178.794 99.2702Z" fill="#F28F8F"/>
<path d="M171.993 84.8921C169.285 85.1141 163.646 87.1121 163.565 94.2458C163.483 101.379 164.571 106.826 168.279 107.077C171.986 107.329 180.267 103.955 180.651 94.675C181.036 85.3953 174.643 84.6775 171.993 84.8921Z" fill="#FFA8A7"/>
<path d="M168.567 97.1167L168.634 101.313L166.162 100.595L168.567 97.1167Z" fill="#F28F8F"/>
<path d="M172.254 97.0063C172.257 97.1764 172.209 97.3435 172.117 97.4864C172.025 97.6293 171.892 97.7417 171.736 97.8091C171.58 97.8766 171.407 97.8961 171.24 97.8653C171.073 97.8344 170.918 97.7546 170.796 97.6359C170.675 97.5172 170.591 97.365 170.556 97.1986C170.52 97.0322 170.536 96.8591 170.599 96.7012C170.662 96.5434 170.771 96.408 170.912 96.3121C171.052 96.2162 171.218 96.1642 171.388 96.1627C171.5 96.1608 171.612 96.1811 171.716 96.2225C171.821 96.2639 171.916 96.3257 171.997 96.4041C172.077 96.4825 172.141 96.5761 172.185 96.6795C172.23 96.7829 172.253 96.8939 172.254 97.0063Z" fill="#263238"/>
<path d="M166.621 96.4883C166.624 96.6583 166.576 96.8254 166.484 96.9683C166.392 97.1113 166.259 97.2236 166.103 97.291C165.947 97.3585 165.774 97.378 165.607 97.3472C165.44 97.3164 165.285 97.2365 165.164 97.1178C165.042 96.9991 164.958 96.8469 164.923 96.6805C164.888 96.5141 164.903 96.341 164.966 96.1832C165.029 96.0253 165.138 95.8899 165.279 95.794C165.419 95.6981 165.585 95.6462 165.755 95.6447C165.868 95.6427 165.979 95.663 166.084 95.7044C166.188 95.7459 166.283 95.8076 166.364 95.886C166.444 95.9645 166.509 96.0581 166.553 96.1614C166.597 96.2648 166.62 96.3759 166.621 96.4883Z" fill="#263238"/>
<path d="M164.705 94.7195L166.362 93.7057C166.362 93.7057 165.711 93.0471 165.075 93.4541C164.894 93.6039 164.762 93.8045 164.696 94.0301C164.63 94.2556 164.633 94.4957 164.705 94.7195Z" fill="#816CC5"/>
<path d="M168.086 102.778C168.951 102.364 169.791 101.9 170.602 101.387C170.602 101.387 171.142 102.763 170.017 103.333C169.681 103.478 169.305 103.502 168.952 103.401C168.6 103.3 168.294 103.08 168.086 102.778Z" fill="#F28F8F"/>
<path d="M164.705 94.7195L166.362 93.7057C166.362 93.7057 165.711 93.0471 165.075 93.4541C164.894 93.6039 164.762 93.8045 164.696 94.0301C164.63 94.2556 164.633 94.4957 164.705 94.7195Z" fill="#263238"/>
<path d="M176.47 96.6213C176.47 96.6213 176.3 99.6257 178.031 99.6257H181.428V93.8907C181.428 87.46 176.544 80.7408 166.162 86.054C166.162 86.054 165.659 94.6381 176.47 96.6213Z" fill="#263238"/>
<path d="M178.018 99.278C177.995 98.6218 178.122 97.969 178.388 97.3688C178.518 96.9954 178.755 96.6686 179.07 96.4291C179.384 96.1896 179.762 96.048 180.157 96.022C182.177 96.022 182.429 97.9312 182.377 98.6268C182.292 99.6999 181.792 100.698 180.984 101.409C180.176 102.12 179.123 102.489 178.048 102.438L178.018 99.278Z" fill="#FFA8A7"/>
<path d="M171.535 109.601C171.535 109.601 170.448 114.182 169.604 118.252C169.542 118.544 169.584 118.848 169.721 119.112C169.859 119.377 170.084 119.585 170.358 119.702C170.633 119.819 170.939 119.838 171.225 119.754C171.511 119.67 171.76 119.49 171.928 119.243C174.51 115.477 177.848 110.704 178.876 109.535L183.176 109.868L185.595 119.88L182.45 133.104C182.178 134.232 182.116 135.401 182.265 136.552C180.73 138.186 178.727 139.305 176.53 139.756C172.756 140.496 166.244 139.512 164.069 137.588C164.069 137.588 163.44 129.692 163.07 127.45C163.047 127.314 162.994 127.185 162.913 127.073C162.832 126.961 162.726 126.87 162.603 126.806C161.863 126.407 160.176 125.178 160.028 122.255C159.777 117.194 166.599 109.816 166.599 109.816L171.535 109.601Z" fill="#816CC5"/>
<path d="M183.175 109.867C183.175 109.867 178.231 117.519 185.594 119.872C189.516 121.123 196.939 121.552 201.06 121.693C201.94 121.72 202.81 121.499 203.57 121.055C204.331 120.612 204.951 119.963 205.36 119.184L212.76 105.035L208.823 101.801C208.823 101.801 203.606 108.861 201.038 113.219C201.038 113.219 185.498 110.045 183.175 109.867Z" fill="#FFA8A7"/>
<path d="M212.532 94.1499C212.532 94.1499 214.426 90.9901 214.944 90.3019C215.462 89.6137 215.95 89.3917 216.187 90.4499C216.424 91.5081 213.967 95.4227 213.967 95.4227L216.698 100.647C216.698 100.647 215.847 102.186 212.776 105.035L210.926 98.0941L212.532 94.1499Z" fill="#FFA8A7"/>
<path d="M208.838 101.802C208.838 101.802 208.934 97.8647 209.445 96.6215C209.955 95.3783 211.591 94.7123 212.138 93.8465C212.686 92.9807 213.426 93.1065 213.455 94.2091C213.485 95.3117 212.153 96.6215 212.153 96.6215C212.682 97.3662 212.997 98.2415 213.063 99.1523C213.011 100.344 212.775 105.072 212.775 105.072L208.838 101.802Z" fill="#FFA8A7"/>
<path d="M213.063 99.2041C213.044 99.2025 213.026 99.1941 213.012 99.1806C212.999 99.1671 212.99 99.1492 212.989 99.1301C212.925 98.2359 212.618 97.376 212.101 96.6437C212.094 96.6375 212.089 96.6301 212.085 96.6218C212.082 96.6135 212.08 96.6046 212.08 96.5956C212.08 96.5867 212.082 96.5778 212.085 96.5695C212.089 96.5612 212.094 96.5538 212.101 96.5475C212.101 96.5475 213.41 95.2007 213.381 94.1869C213.381 93.7281 213.218 93.4469 212.974 93.3581C212.955 93.3514 212.939 93.3378 212.929 93.32C212.92 93.3022 212.917 93.2815 212.922 93.2619C212.927 93.2435 212.939 93.2277 212.956 93.2181C212.973 93.2084 212.992 93.2056 213.011 93.2101C213.322 93.2915 213.514 93.6541 213.529 94.1795C213.529 95.1637 212.485 96.3995 212.249 96.6067C212.775 97.3481 213.083 98.2224 213.137 99.1301C213.137 99.1498 213.129 99.1686 213.115 99.1825C213.101 99.1964 213.082 99.2041 213.063 99.2041Z" fill="#F28F8F"/>
<path d="M215.95 96.6362C216.072 96.4616 216.158 96.2642 216.202 96.0557C216.247 95.8473 216.249 95.632 216.209 95.4226C216.148 95.1436 215.981 94.8989 215.744 94.7402C215.507 94.5815 215.217 94.521 214.936 94.5716C214.366 94.6456 212.05 95.837 212.923 96.8953C213.3 97.3615 214.773 96.8582 214.773 96.8582L215.95 96.6362Z" fill="#FFA8A7"/>
<path d="M213.537 97.1691C213.416 97.1817 213.293 97.1685 213.177 97.1302C213.061 97.0919 212.954 97.0295 212.864 96.9471C212.774 96.8486 212.711 96.7295 212.678 96.6003C212.646 96.4712 212.646 96.3361 212.679 96.2071C212.849 95.5041 213.863 94.9047 214.433 94.6605C214.452 94.6531 214.474 94.6536 214.493 94.6619C214.513 94.6701 214.528 94.6856 214.536 94.7049C214.54 94.7141 214.541 94.7239 214.541 94.7338C214.541 94.7437 214.538 94.7534 214.534 94.7623C214.53 94.7713 214.524 94.7794 214.517 94.786C214.51 94.7927 214.501 94.7978 214.492 94.8011C213.789 95.1045 212.96 95.6817 212.827 96.2811C212.798 96.3882 212.797 96.501 212.824 96.6086C212.851 96.7162 212.906 96.815 212.982 96.8953C213.263 97.2431 214.359 96.9693 214.751 96.8361C214.76 96.8327 214.77 96.8311 214.78 96.8315C214.79 96.8319 214.799 96.8343 214.808 96.8384C214.817 96.8425 214.825 96.8483 214.832 96.8556C214.838 96.8628 214.844 96.8713 214.847 96.8805C214.85 96.8897 214.852 96.8995 214.852 96.9094C214.851 96.9192 214.849 96.9289 214.845 96.9378C214.841 96.9467 214.835 96.9548 214.828 96.9614C214.82 96.9681 214.812 96.9733 214.803 96.9767C214.392 97.0993 213.966 97.164 213.537 97.1691Z" fill="#F28F8F"/>
<path d="M216.705 98.1828C216.825 98.0073 216.909 97.8096 216.952 97.6013C216.995 97.393 216.997 97.1781 216.956 96.9692C216.896 96.6917 216.73 96.4483 216.494 96.2897C216.259 96.1312 215.971 96.0697 215.691 96.1182C215.121 96.1922 212.797 97.391 213.671 98.4418C214.137 99.0042 215.528 98.4048 215.528 98.4048L216.705 98.1828Z" fill="#FFA8A7"/>
<path d="M216.698 100.64C216.698 100.64 217.756 99.0929 217.223 98.4195C216.691 97.7461 215.403 98.1605 214.263 99.5369C213.871 100.011 213.886 100.884 214.737 100.654C215.221 100.532 215.68 100.324 216.091 100.04L216.698 100.64Z" fill="#FFA8A7"/>
<path d="M214.358 98.7599C214.223 98.7741 214.086 98.7576 213.958 98.7115C213.83 98.6653 213.714 98.5908 213.618 98.4935C213.514 98.3768 213.444 98.2328 213.418 98.0783C213.392 97.9237 213.41 97.7649 213.47 97.6202C213.803 96.7914 215.254 96.1402 215.69 96.044C215.835 96.0218 215.982 96.0218 216.127 96.044C216.137 96.0458 216.146 96.0495 216.154 96.055C216.163 96.0605 216.17 96.0675 216.175 96.0758C216.181 96.0841 216.185 96.0935 216.187 96.1033C216.188 96.113 216.188 96.1231 216.186 96.1328C216.184 96.1427 216.181 96.152 216.175 96.1603C216.17 96.1687 216.163 96.1758 216.154 96.1814C216.146 96.1869 216.137 96.1907 216.127 96.1925C216.117 96.1944 216.107 96.1942 216.097 96.192C215.968 96.1698 215.835 96.1698 215.705 96.192C214.845 96.4034 214.097 96.9321 213.611 97.6721C213.558 97.7943 213.542 97.9293 213.564 98.0607C213.586 98.1921 213.646 98.3141 213.737 98.4121C214.159 98.9227 215.491 98.3603 215.505 98.3529C215.523 98.3453 215.543 98.3449 215.561 98.3518C215.579 98.3588 215.593 98.3724 215.602 98.3899C215.609 98.4086 215.61 98.4297 215.603 98.4488C215.596 98.468 215.583 98.4839 215.565 98.4935C215.18 98.6492 214.772 98.7393 214.358 98.7599Z" fill="#F28F8F"/>
<path d="M214.478 100.758C214.389 100.765 214.301 100.748 214.221 100.709C214.142 100.67 214.074 100.61 214.026 100.536C213.947 100.362 213.921 100.169 213.952 99.9809C213.982 99.7927 214.067 99.6175 214.196 99.4774C215.003 98.508 215.935 97.9456 216.631 97.9974C216.641 97.9974 216.652 97.9995 216.661 98.0037C216.671 98.0079 216.679 98.014 216.686 98.0217C216.693 98.0293 216.698 98.0384 216.702 98.0482C216.705 98.0581 216.706 98.0685 216.705 98.0788C216.704 98.0886 216.701 98.098 216.697 98.1067C216.692 98.1153 216.686 98.1229 216.678 98.1291C216.671 98.1353 216.662 98.1399 216.653 98.1427C216.643 98.1455 216.633 98.1465 216.624 98.1454C215.965 98.0862 215.092 98.6264 214.315 99.5588C214.208 99.6744 214.137 99.8176 214.108 99.972C214.079 100.126 214.094 100.286 214.152 100.432C214.27 100.624 214.522 100.602 214.714 100.55C215.188 100.43 215.636 100.227 216.039 99.951C216.054 99.939 216.072 99.9324 216.091 99.9324C216.11 99.9324 216.128 99.939 216.143 99.951C216.156 99.9649 216.164 99.9835 216.164 100.003C216.164 100.022 216.156 100.041 216.143 100.055C215.726 100.347 215.26 100.56 214.766 100.684C214.674 100.723 214.577 100.748 214.478 100.758Z" fill="#F28F8F"/>
<path d="M199.677 211.344C199.677 211.344 200.572 217.501 202.193 218.744C202.818 219.447 203.211 220.325 203.318 221.26C203.318 222.51 200.476 225.308 200.476 227.431C200.476 229.555 200.091 233.411 200.091 233.411L193.135 232.308C193.135 232.308 194.046 221.748 193.542 219.306C193.039 216.864 191.885 212.52 191.885 212.52L199.677 211.344Z" fill="#FFA8A7"/>
<path d="M202.193 218.773C202.343 219.103 202.398 219.468 202.353 219.828C202.307 220.187 202.162 220.527 201.934 220.808C200.604 222.56 199.83 224.672 199.714 226.869C199.256 231.864 199.011 233.226 196.074 232.789L193.114 232.345C193.114 232.345 188.94 237.155 189.051 237.917C189.162 238.679 190.62 239.486 194.357 238.694C198.094 237.902 201.18 236.474 201.498 232.5C201.816 228.527 202.179 226.151 202.682 225.493L204.391 230.525C204.622 230.678 204.902 230.74 205.176 230.697C205.45 230.655 205.698 230.511 205.871 230.295L204.798 223.302C204.798 223.302 203.977 218.507 202.149 218.781L202.193 218.773Z" fill="#263238"/>
<path d="M188.244 200.54L191.885 212.565C197.228 215.37 199.677 211.359 199.677 211.359C199.677 211.359 199.581 202.39 199.396 197.299C198.515 198.982 197.021 200.261 195.222 200.873C191.53 202.057 189.199 201.073 188.244 200.54Z" fill="#FFA8A7"/>
<path d="M195.222 200.888C197.02 200.276 198.514 198.997 199.395 197.314C199.395 197.314 199.395 197.432 199.351 196.285C199.033 189.077 193.571 180.745 193.571 180.745C193.571 180.745 192.284 181.1 191.832 164.465C191.381 147.83 183.049 139.719 183.049 139.719L170.395 140.807V153.735L183.877 186.043L188.243 200.496C189.198 201.073 191.529 202.057 195.222 200.888Z" fill="#37474F"/>
<path d="M164.039 137.58C164.039 137.58 166.57 139.512 172.963 139.512C179.039 139.512 182.235 136.552 182.235 136.552L183.02 139.756C180.204 141.629 176.937 142.711 173.56 142.888C170.183 143.065 166.82 142.331 163.824 140.762L164.039 137.58Z" fill="#455A64"/>
<path d="M177.109 271.069C177.109 271.069 178.004 277.233 179.625 278.506C180.25 279.205 180.643 280.082 180.749 281.014C180.749 282.265 177.908 285.062 177.908 287.186C177.908 289.31 177.523 293.165 177.523 293.165L170.567 292.07C170.567 292.07 171.477 281.503 170.967 279.061C170.456 276.619 169.316 272.282 169.316 272.282L177.109 271.069Z" fill="#945959"/>
<path d="M179.625 278.506C179.775 278.835 179.83 279.199 179.784 279.557C179.739 279.915 179.594 280.254 179.366 280.534C178.034 282.288 177.26 284.402 177.146 286.602C176.687 291.597 176.443 292.951 173.505 292.522L170.545 292.085C170.545 292.085 166.372 296.888 166.483 297.65C166.594 298.412 168.051 299.219 171.788 298.427C175.525 297.635 178.611 296.207 178.929 292.233C179.248 288.26 179.61 285.884 180.113 285.226L181.823 290.258C182.054 290.411 182.334 290.473 182.607 290.43C182.881 290.388 183.129 290.244 183.303 290.028L182.23 283.035C182.23 283.035 181.408 278.24 179.581 278.521L179.625 278.506Z" fill="#816CC5"/>
<path d="M136.889 261.375C136.889 261.375 132.39 262.855 132.39 269.219C132.39 275.583 124.99 270.048 124.99 270.048L127.21 264.528C128.301 261.775 128.449 258.738 127.632 255.892L126.966 253.598L123.658 242.135L133.559 239.76C133.559 239.76 133.693 242.816 133.633 245.924C133.572 248.046 133.821 250.165 134.373 252.214L136.889 261.375Z" fill="#945959"/>
<path d="M134.388 252.192C134.388 252.192 133.552 253.339 131.043 254.108C130.363 254.349 129.637 254.428 128.922 254.339C128.206 254.251 127.521 253.997 126.921 253.598L123.613 242.135L133.559 239.76C133.559 239.76 133.692 242.816 133.633 245.924C133.578 248.039 133.832 250.15 134.388 252.192Z" fill="#816CC5"/>
<path d="M135.972 258.008C136.068 258.356 136.067 258.724 135.968 259.072C135.868 259.419 135.675 259.732 135.409 259.977C133.823 261.515 132.738 263.496 132.294 265.66C131.088 270.537 130.636 271.839 127.802 270.958L124.968 270.078C124.968 270.078 120.113 274.2 120.113 274.969C120.113 275.739 121.423 276.753 125.242 276.538C129.06 276.323 132.316 275.398 133.234 271.491C134.151 267.584 134.869 265.32 135.454 264.742L136.386 269.974C136.591 270.168 136.862 270.276 137.144 270.276C137.427 270.276 137.698 270.168 137.903 269.974V262.9C137.903 262.9 137.814 258.038 135.964 258.038L135.972 258.008Z" fill="#816CC5"/>
<path opacity="0.6" d="M179.625 278.506C179.775 278.835 179.83 279.199 179.784 279.557C179.739 279.915 179.594 280.254 179.366 280.534C178.034 282.288 177.26 284.402 177.146 286.602C176.687 291.597 176.443 292.951 173.505 292.522L170.545 292.085C170.545 292.085 166.372 296.888 166.483 297.65C166.594 298.412 168.051 299.219 171.788 298.427C175.525 297.635 178.611 296.207 178.929 292.233C179.248 288.26 179.61 285.884 180.113 285.226L181.823 290.258C182.054 290.411 182.334 290.473 182.607 290.43C182.881 290.388 183.129 290.244 183.303 290.028L182.23 283.035C182.23 283.035 181.408 278.24 179.581 278.521L179.625 278.506Z" fill="black"/>
<path opacity="0.6" d="M135.972 258.008C136.068 258.356 136.067 258.724 135.968 259.072C135.868 259.419 135.675 259.732 135.409 259.977C133.823 261.515 132.738 263.496 132.294 265.66C131.088 270.537 130.636 271.839 127.802 270.958L124.968 270.078C124.968 270.078 120.113 274.2 120.113 274.969C120.113 275.739 121.423 276.753 125.242 276.538C129.06 276.323 132.316 275.398 133.234 271.491C134.151 267.584 134.869 265.32 135.454 264.742L136.386 269.974C136.591 270.168 136.862 270.276 137.144 270.276C137.427 270.276 137.698 270.168 137.903 269.974V262.9C137.903 262.9 137.814 258.038 135.964 258.038L135.972 258.008Z" fill="black"/>
<path d="M141.284 200.481L140.995 203.855C140.995 203.855 124.353 218.655 120.919 223.835C118.699 227.195 123.62 242.128 123.62 242.128C123.62 242.128 129.577 244.267 133.566 239.738C133.365 236.534 132.738 233.371 131.701 230.333L150.097 217.501L149.357 200.807L141.284 200.481Z" fill="#816CC5"/>
<path opacity="0.3" d="M141.284 200.481L140.995 203.855C140.995 203.855 124.353 218.655 120.919 223.835C118.699 227.195 123.62 242.128 123.62 242.128C123.62 242.128 129.577 244.267 133.566 239.738C133.365 236.534 132.738 233.371 131.701 230.333L150.097 217.501L149.357 200.807L141.284 200.481Z" fill="black"/>
<path d="M147.826 213.497C147.826 213.497 144.866 210.715 143.719 207.77C143.719 207.77 143.719 209.938 146.901 214.326L148.581 218.566L150.061 217.508L147.826 213.497Z" fill="#816CC5"/>
<path opacity="0.5" d="M147.826 213.497C147.826 213.497 144.866 210.715 143.719 207.77C143.719 207.77 143.719 209.938 146.901 214.326L148.581 218.566L150.061 217.508L147.826 213.497Z" fill="black"/>
<path d="M153.457 142.184C151.297 142.049 149.14 142.481 147.197 143.434C146.351 143.07 145.439 142.884 144.518 142.887C142.895 142.911 141.335 143.515 140.118 144.589C138.901 145.662 138.107 147.136 137.88 148.743C137.654 150.35 138.008 151.985 138.881 153.353C139.753 154.722 141.086 155.734 142.639 156.207L143.319 161.675H142.927C142.244 161.67 141.566 161.801 140.933 162.059C140.301 162.317 139.725 162.698 139.24 163.179C138.755 163.661 138.371 164.234 138.108 164.864C137.845 165.495 137.71 166.172 137.71 166.855C137.71 167.103 137.73 167.351 137.769 167.595C136.435 168.314 135.379 169.457 134.768 170.843C134.157 172.229 134.026 173.78 134.395 175.249C134.764 176.719 135.614 178.023 136.808 178.955C138.002 179.888 139.473 180.395 140.988 180.397H161.272C163.398 173.609 164.49 166.539 164.513 159.426C164.513 147.815 160.376 142.628 153.457 142.184Z" fill="#263238"/>
<path d="M107.8 206.919C107.8 206.919 105.128 209.464 104.581 210.123C104.033 210.782 103.907 211.307 104.995 211.3C106.083 211.292 109.354 208.044 109.354 208.044L115.052 209.524C115.052 209.524 116.369 208.354 118.463 204.728L111.285 204.455L107.8 206.919Z" fill="#945959"/>
<path d="M114.408 201.627C114.408 201.627 110.597 202.589 109.48 203.366C108.363 204.143 108.081 205.882 107.364 206.608C106.646 207.333 106.964 208.021 108.007 207.814C109.051 207.607 110.072 206.008 110.072 206.008C110.916 206.36 111.84 206.473 112.743 206.334C113.898 206.023 118.434 204.75 118.434 204.75L114.408 201.627Z" fill="#945959"/>
<path d="M107.659 207.94C107.523 207.955 107.384 207.932 107.26 207.873C107.136 207.814 107.031 207.722 106.956 207.607C106.95 207.601 106.944 207.593 106.941 207.585C106.937 207.577 106.936 207.568 106.936 207.559C106.936 207.55 106.937 207.541 106.941 207.533C106.944 207.524 106.95 207.517 106.956 207.511C106.97 207.497 106.989 207.49 107.008 207.49C107.027 207.49 107.046 207.497 107.06 207.511C107.171 207.733 107.511 207.814 107.962 207.725C108.954 207.526 109.975 205.972 109.983 205.949C109.996 205.94 110.011 205.935 110.027 205.935C110.043 205.935 110.059 205.94 110.071 205.949C110.899 206.293 111.805 206.403 112.691 206.268C112.711 206.268 112.73 206.275 112.743 206.289C112.757 206.303 112.765 206.322 112.765 206.342C112.765 206.361 112.757 206.38 112.743 206.394C112.73 206.408 112.711 206.416 112.691 206.416C111.795 206.562 110.875 206.457 110.034 206.112C109.842 206.393 108.917 207.703 107.955 207.896C107.858 207.917 107.759 207.932 107.659 207.94Z" fill="#703838"/>
<path d="M110.952 209.701C110.808 209.86 110.634 209.987 110.439 210.076C110.244 210.165 110.034 210.214 109.82 210.219C109.534 210.223 109.259 210.116 109.051 209.919C108.844 209.723 108.721 209.454 108.71 209.168C108.658 208.599 109.309 206.075 110.53 206.689C111.071 206.956 110.908 208.51 110.908 208.51L110.952 209.701Z" fill="#945959"/>
<path d="M108.755 208.754C108.737 208.75 108.72 208.74 108.709 208.725C108.698 208.71 108.694 208.691 108.696 208.673C108.807 208.058 109.169 206.934 109.813 206.615C109.928 206.557 110.055 206.526 110.183 206.526C110.312 206.526 110.439 206.557 110.553 206.615C111.13 206.904 110.975 208.443 110.968 208.51C110.968 208.529 110.96 208.548 110.946 208.562C110.932 208.576 110.913 208.584 110.894 208.584C110.874 208.584 110.855 208.576 110.841 208.562C110.827 208.548 110.82 208.529 110.82 208.51C110.857 208.095 110.886 206.963 110.487 206.763C110.389 206.711 110.279 206.683 110.168 206.683C110.057 206.683 109.948 206.711 109.85 206.763C109.267 207.254 108.896 207.952 108.814 208.71C108.809 208.721 108.8 208.731 108.79 208.739C108.78 208.747 108.768 208.752 108.755 208.754Z" fill="#703838"/>
<path d="M112.624 210.093C112.48 210.252 112.306 210.379 112.111 210.468C111.916 210.557 111.706 210.606 111.492 210.611C111.207 210.613 110.932 210.505 110.725 210.309C110.518 210.113 110.395 209.845 110.382 209.56C110.33 208.991 110.981 206.46 112.202 207.081C112.853 207.414 112.58 208.902 112.58 208.902L112.624 210.093Z" fill="#945959"/>
<path d="M115.022 209.545C115.022 209.545 113.72 210.899 112.98 210.552C112.24 210.204 112.321 208.835 113.416 207.414C113.794 206.926 114.645 206.748 114.615 207.629C114.606 208.136 114.503 208.638 114.312 209.109L115.022 209.545Z" fill="#945959"/>
<path d="M110.486 210.042C110.472 210.042 110.458 210.037 110.446 210.029C110.435 210.022 110.425 210.01 110.42 209.997C110.359 209.861 110.322 209.716 110.309 209.568C110.309 209.139 110.619 207.57 111.359 207.067C111.485 206.974 111.636 206.919 111.792 206.91C111.948 206.901 112.104 206.937 112.24 207.015C112.936 207.363 112.669 208.85 112.654 208.917C112.653 208.927 112.649 208.936 112.643 208.945C112.638 208.953 112.631 208.96 112.623 208.966C112.614 208.971 112.605 208.975 112.595 208.977C112.585 208.979 112.575 208.978 112.566 208.976C112.556 208.974 112.546 208.971 112.538 208.965C112.53 208.96 112.523 208.953 112.517 208.944C112.512 208.936 112.508 208.927 112.506 208.917C112.504 208.907 112.504 208.897 112.506 208.887C112.506 208.887 112.765 207.452 112.173 207.148C112.06 207.081 111.929 207.049 111.797 207.057C111.665 207.065 111.538 207.112 111.433 207.193C110.822 207.829 110.473 208.672 110.457 209.553C110.465 209.687 110.497 209.817 110.553 209.938C110.556 209.947 110.558 209.957 110.558 209.967C110.557 209.977 110.555 209.987 110.551 209.996C110.547 210.005 110.541 210.013 110.534 210.019C110.526 210.026 110.518 210.031 110.508 210.034L110.486 210.042Z" fill="#703838"/>
<path d="M112.514 210.116C112.498 210.116 112.482 210.112 112.468 210.102C112.455 210.093 112.445 210.079 112.44 210.064C112.226 209.398 112.566 208.369 113.336 207.363C113.445 207.208 113.596 207.088 113.772 207.017C113.948 206.946 114.141 206.927 114.327 206.963C114.46 207.015 114.682 207.163 114.668 207.629C114.655 208.137 114.55 208.639 114.357 209.109C114.349 209.127 114.334 209.14 114.316 209.147C114.298 209.154 114.278 209.154 114.261 209.146C114.248 209.132 114.242 209.113 114.242 209.094C114.242 209.076 114.248 209.057 114.261 209.043C114.439 208.59 114.537 208.109 114.549 207.622C114.549 207.422 114.549 207.178 114.312 207.096C114.156 207.074 113.996 207.095 113.851 207.157C113.706 207.22 113.581 207.322 113.491 207.452C112.751 208.414 112.418 209.39 112.625 210.012C112.629 210.022 112.63 210.032 112.629 210.042C112.628 210.053 112.625 210.063 112.62 210.072C112.616 210.081 112.609 210.089 112.601 210.095C112.593 210.101 112.583 210.106 112.573 210.108L112.514 210.116Z" fill="#703838"/>
<path d="M144.06 169.542H143.609C142.314 169.56 141.04 169.875 139.885 170.463C138.731 171.05 137.726 171.895 136.949 172.931C134.877 175.691 126.234 188.308 126.234 188.308C126.234 188.308 119.233 195.752 114.445 201.628L118.471 204.751C118.471 204.751 131.791 193.244 132.871 192.015C133.952 190.787 139.369 183.838 139.369 183.838L144.06 169.542Z" fill="#945959"/>
<path d="M156.307 169.26L160.606 169.593L160.096 191.66L159.844 192.815C159.563 194.162 159.563 195.552 159.844 196.899L160.118 198.239C160.118 198.239 150.698 203.027 141.521 198.239V174.921L144.541 169.608L148.981 169.334L156.307 169.26Z" fill="#945959"/>
<path d="M148.967 164.709V169.334C148.967 169.334 144.261 174.514 148.849 174.899C153.437 175.284 156.308 169.26 156.308 169.26V160.513L148.967 164.709Z" fill="#945959"/>
<path d="M156.225 158.997V159.263C154.59 165.716 150.305 167.122 148.966 167.455L148.914 157.458H156.018L156.225 158.997Z" fill="#703838"/>
<path d="M149.425 144.618C146.717 144.84 141.078 146.838 140.996 153.979C140.915 161.12 142.003 166.559 145.71 166.803C149.418 167.047 157.698 163.68 158.083 154.408C158.468 145.136 152.074 144.403 149.425 144.618Z" fill="#945959"/>
<path d="M145.999 156.851L146.065 161.046L143.594 160.329L145.999 156.851Z" fill="#703838"/>
<path d="M149.684 156.732C149.664 156.945 149.566 157.143 149.408 157.287C149.25 157.431 149.043 157.511 148.829 157.511C148.616 157.511 148.409 157.431 148.251 157.287C148.093 157.143 147.995 156.945 147.975 156.732C147.973 156.619 147.993 156.507 148.034 156.402C148.076 156.297 148.137 156.201 148.216 156.12C148.294 156.039 148.388 155.974 148.491 155.93C148.594 155.885 148.706 155.86 148.818 155.859C148.933 155.856 149.047 155.878 149.154 155.921C149.26 155.964 149.357 156.029 149.438 156.11C149.519 156.192 149.582 156.289 149.625 156.396C149.667 156.503 149.687 156.617 149.684 156.732Z" fill="#263238"/>
<path d="M144.06 156.214C144.063 156.384 144.016 156.551 143.923 156.694C143.831 156.837 143.699 156.95 143.543 157.017C143.386 157.084 143.214 157.104 143.047 157.073C142.879 157.042 142.725 156.963 142.603 156.844C142.481 156.725 142.397 156.573 142.362 156.407C142.327 156.24 142.342 156.067 142.406 155.909C142.469 155.751 142.578 155.616 142.718 155.52C142.859 155.424 143.025 155.372 143.195 155.371C143.421 155.369 143.639 155.456 143.801 155.614C143.963 155.772 144.057 155.988 144.06 156.214Z" fill="#263238"/>
<path d="M142.137 154.46L143.794 153.446C143.794 153.446 143.143 152.788 142.507 153.195C142.324 153.343 142.191 153.544 142.125 153.77C142.059 153.996 142.063 154.237 142.137 154.46Z" fill="#816CC5"/>
<path d="M145.541 162.512C146.407 162.096 147.25 161.631 148.064 161.121C148.064 161.121 148.605 162.497 147.48 163.059C147.143 163.206 146.766 163.231 146.413 163.132C146.059 163.032 145.751 162.813 145.541 162.512Z" fill="#703838"/>
<path d="M142.137 154.46L143.794 153.446C143.794 153.446 143.143 152.788 142.507 153.195C142.324 153.343 142.191 153.544 142.125 153.77C142.059 153.996 142.063 154.237 142.137 154.46Z" fill="#263238"/>
<path d="M149.98 155.023L148.322 154.009C148.322 154.009 148.973 153.351 149.602 153.758C149.786 153.906 149.92 154.106 149.987 154.332C150.054 154.558 150.052 154.799 149.98 155.023Z" fill="#263238"/>
<path d="M142.115 145.61C141.661 145.743 141.256 146.002 140.946 146.359C140.636 146.715 140.434 147.152 140.365 147.619C140.295 148.086 140.361 148.563 140.555 148.994C140.748 149.425 141.061 149.791 141.456 150.05C142.549 150.685 143.796 151.006 145.06 150.975C146.583 150.989 148.082 150.59 149.396 149.821C149.396 149.821 150.025 155.001 153.903 155.496C153.903 155.496 153.733 159.337 155.464 159.337H158.861V153.595C158.86 152.096 158.511 150.619 157.842 149.278C157.172 147.938 156.2 146.772 155.002 145.872C153.804 144.972 152.413 144.363 150.94 144.093C149.466 143.822 147.949 143.898 146.51 144.315L142.115 145.61Z" fill="#263238"/>
<path d="M155.45 159.004C155.427 158.35 155.553 157.7 155.82 157.102C155.95 156.728 156.186 156.4 156.501 156.159C156.815 155.919 157.193 155.776 157.589 155.748C159.609 155.711 159.86 157.665 159.809 158.353C159.725 159.426 159.227 160.424 158.421 161.137C157.614 161.85 156.562 162.221 155.487 162.171L155.45 159.004Z" fill="#945959"/>
<path d="M146.368 169.46C146.368 169.46 143.112 175.055 143.112 177.349L154.908 177.955C154.908 177.955 156.477 171.392 158.275 169.394L160.606 169.571L163.026 179.576L160.806 191.668C160.806 191.668 149.351 195.886 140.715 191.668C140.715 191.668 140.781 187.827 140.434 186.673C140.434 186.673 137.673 185.74 137.474 181.959C137.222 176.89 144.045 169.519 144.045 169.519L146.368 169.46Z" fill="#816CC5"/>
<path d="M160.606 169.593C160.606 169.593 155.663 177.245 163.026 179.598C166.948 180.856 174.37 181.278 178.492 181.419C179.372 181.449 180.242 181.231 181.003 180.788C181.763 180.346 182.383 179.697 182.791 178.917L190.192 164.761L186.24 161.527C186.24 161.527 181.008 168.594 178.448 172.938C178.477 172.938 162.93 169.771 160.606 169.593Z" fill="#945959"/>
<path d="M189.94 153.92C189.94 153.92 191.834 150.753 192.352 150.072C192.87 149.391 193.359 149.154 193.595 150.22C193.832 151.286 191.375 155.185 191.375 155.185L194.106 160.41C194.106 160.41 193.255 161.949 190.184 164.798L188.334 157.857L189.94 153.92Z" fill="#945959"/>
<path d="M186.24 161.527C186.24 161.527 186.336 157.59 186.847 156.347C187.358 155.104 188.993 154.431 189.541 153.565C190.088 152.699 190.828 152.869 190.858 153.927C190.887 154.986 189.555 156.347 189.555 156.347C190.085 157.089 190.399 157.962 190.466 158.871C190.414 160.069 190.177 164.791 190.177 164.791L186.24 161.527Z" fill="#945959"/>
<path d="M190.494 158.93C190.475 158.93 190.456 158.922 190.442 158.908C190.428 158.894 190.42 158.875 190.42 158.856C190.359 157.963 190.051 157.105 189.532 156.377C189.526 156.371 189.521 156.363 189.517 156.355C189.514 156.347 189.512 156.338 189.512 156.329C189.512 156.32 189.514 156.311 189.517 156.303C189.521 156.294 189.526 156.287 189.532 156.281C189.532 156.281 190.842 154.934 190.812 153.913C190.812 153.454 190.65 153.173 190.405 153.084C190.396 153.082 190.387 153.079 190.378 153.073C190.37 153.067 190.364 153.06 190.359 153.052C190.354 153.043 190.351 153.034 190.35 153.024C190.349 153.014 190.35 153.004 190.354 152.995C190.355 152.985 190.359 152.976 190.365 152.968C190.37 152.959 190.377 152.952 190.385 152.947C190.394 152.941 190.403 152.937 190.413 152.935C190.423 152.934 190.433 152.934 190.442 152.936C190.753 153.017 190.946 153.38 190.96 153.913C190.96 154.889 189.917 156.088 189.68 156.34C190.208 157.08 190.516 157.955 190.568 158.863C190.565 158.881 190.556 158.897 190.543 158.909C190.529 158.921 190.512 158.928 190.494 158.93Z" fill="#703838"/>
<path d="M193.381 156.37C193.503 156.193 193.588 155.994 193.632 155.785C193.675 155.575 193.675 155.358 193.633 155.149C193.574 154.87 193.409 154.626 193.172 154.469C192.936 154.311 192.647 154.252 192.368 154.305C191.798 154.372 189.481 155.563 190.355 156.621C190.732 157.087 192.205 156.621 192.205 156.621L193.381 156.37Z" fill="#945959"/>
<path d="M190.969 156.88C190.847 156.895 190.724 156.882 190.608 156.844C190.491 156.806 190.385 156.742 190.296 156.658C190.206 156.56 190.142 156.44 190.11 156.311C190.078 156.182 190.078 156.047 190.111 155.918C190.281 155.222 191.295 154.623 191.864 154.379C191.873 154.373 191.883 154.369 191.894 154.367C191.905 154.365 191.916 154.366 191.926 154.369C191.936 154.372 191.946 154.377 191.954 154.384C191.962 154.391 191.969 154.4 191.973 154.41C191.978 154.42 191.98 154.431 191.98 154.442C191.979 154.452 191.977 154.463 191.972 154.473C191.967 154.482 191.961 154.491 191.952 154.498C191.944 154.505 191.934 154.509 191.924 154.512C191.221 154.815 190.392 155.4 190.259 155.955C190.23 156.062 190.228 156.174 190.254 156.281C190.28 156.388 190.332 156.487 190.407 156.569C190.695 156.917 191.79 156.643 192.183 156.51C192.192 156.507 192.202 156.505 192.211 156.505C192.221 156.506 192.231 156.508 192.24 156.512C192.249 156.516 192.257 156.522 192.263 156.529C192.27 156.537 192.275 156.545 192.279 156.554C192.282 156.564 192.284 156.573 192.283 156.583C192.283 156.593 192.281 156.603 192.276 156.612C192.272 156.621 192.266 156.629 192.259 156.635C192.252 156.642 192.244 156.647 192.234 156.651C191.825 156.785 191.399 156.862 190.969 156.88Z" fill="#703838"/>
<path d="M194.137 157.916C194.257 157.739 194.341 157.54 194.384 157.331C194.427 157.121 194.429 156.905 194.388 156.695C194.328 156.418 194.162 156.175 193.926 156.018C193.69 155.861 193.402 155.801 193.123 155.852C192.546 155.918 190.23 157.117 191.103 158.168C191.569 158.738 192.96 158.168 192.96 158.168L194.137 157.916Z" fill="#945959"/>
<path d="M194.128 160.373C194.128 160.373 195.186 158.834 194.653 158.153C194.12 157.472 192.833 157.894 191.693 159.27C191.301 159.744 191.316 160.617 192.167 160.388C192.651 160.269 193.11 160.063 193.521 159.781L194.128 160.373Z" fill="#945959"/>
<path d="M191.761 158.486C191.625 158.5 191.488 158.484 191.36 158.438C191.232 158.392 191.116 158.317 191.021 158.22C190.916 158.103 190.846 157.959 190.82 157.805C190.794 157.65 190.812 157.491 190.873 157.346C191.206 156.518 192.656 155.866 193.093 155.77C193.238 155.752 193.384 155.752 193.529 155.77C193.548 155.775 193.565 155.787 193.575 155.804C193.586 155.82 193.591 155.84 193.588 155.859C193.587 155.869 193.583 155.878 193.578 155.887C193.572 155.895 193.565 155.902 193.557 155.908C193.548 155.913 193.539 155.917 193.529 155.919C193.519 155.921 193.509 155.92 193.5 155.918C193.37 155.896 193.237 155.896 193.107 155.918C192.715 155.97 191.317 156.658 191.013 157.398C190.957 157.52 190.94 157.656 190.962 157.788C190.984 157.92 191.046 158.042 191.139 158.138C191.561 158.649 192.893 158.086 192.908 158.079C192.925 158.072 192.945 158.071 192.963 158.078C192.981 158.085 192.996 158.099 193.004 158.116C193.012 158.135 193.012 158.156 193.006 158.175C192.999 158.194 192.985 158.21 192.967 158.22C192.583 158.375 192.175 158.466 191.761 158.486Z" fill="#703838"/>
<path d="M191.909 160.491C191.821 160.497 191.732 160.48 191.653 160.441C191.574 160.402 191.506 160.343 191.457 160.269C191.377 160.096 191.351 159.903 191.381 159.714C191.412 159.526 191.497 159.351 191.627 159.211C192.434 158.242 193.359 157.672 194.062 157.731C194.072 157.731 194.083 157.733 194.092 157.738C194.102 157.742 194.11 157.748 194.117 157.755C194.124 157.763 194.129 157.772 194.133 157.782C194.136 157.792 194.137 157.802 194.136 157.813C194.135 157.823 194.132 157.833 194.127 157.842C194.122 157.852 194.115 157.86 194.107 157.866C194.098 157.872 194.089 157.877 194.078 157.879C194.068 157.881 194.058 157.881 194.047 157.879C193.396 157.827 192.523 158.36 191.746 159.293C191.639 159.409 191.567 159.554 191.538 159.71C191.509 159.865 191.525 160.026 191.583 160.173C191.701 160.358 191.953 160.336 192.145 160.292C192.62 160.171 193.069 159.965 193.47 159.685C193.485 159.673 193.503 159.666 193.522 159.666C193.541 159.666 193.559 159.673 193.574 159.685C193.586 159.701 193.593 159.72 193.593 159.74C193.593 159.761 193.586 159.78 193.574 159.796C193.156 160.084 192.69 160.294 192.197 160.417C192.105 160.456 192.008 160.481 191.909 160.491Z" fill="#703838"/>
<path d="M160.48 199.482C160.48 199.482 168.805 207.622 169.264 224.228C169.723 240.833 170.996 240.508 170.996 240.508C170.996 240.508 176.457 248.818 176.782 256.048C176.997 260.799 177.108 271.107 177.108 271.107C177.108 271.107 174.659 275.118 169.316 272.32L161.309 245.836L147.826 213.535V200.54L160.48 199.482Z" fill="#816CC5"/>
<path opacity="0.3" d="M160.48 199.482C160.48 199.482 168.805 207.622 169.264 224.228C169.723 240.833 170.996 240.508 170.996 240.508C170.996 240.508 176.457 248.818 176.782 256.048C176.997 260.799 177.108 271.107 177.108 271.107C177.108 271.107 174.659 275.118 169.316 272.32L161.309 245.836L147.826 213.535V200.54L160.48 199.482Z" fill="black"/>
<path d="M165.676 260.251L169.317 272.32C174.659 275.117 177.109 271.106 177.109 271.106C177.109 271.106 177.013 262.138 176.828 257.046C175.945 258.73 174.452 260.011 172.654 260.628C168.961 261.79 166.608 260.798 165.676 260.251Z" fill="#816CC5"/>
<path d="M176.412 271.891C176.025 272.247 175.589 272.546 175.117 272.779C175.114 272.744 175.114 272.71 175.117 272.675C174.725 267.569 174.273 263.47 173.785 260.147C172.246 249.535 170.388 246.901 169.153 245.162C168.618 244.462 168.189 243.686 167.88 242.861C167.14 240.641 166.777 236.46 166.4 231.598C166.059 227.72 165.66 223.332 165.046 219.173C163.662 210.086 155.907 200.362 155.825 200.274C155.768 200.203 155.726 200.122 155.7 200.035C155.674 199.948 155.666 199.857 155.676 199.767C155.685 199.677 155.713 199.59 155.756 199.51C155.8 199.431 155.858 199.361 155.929 199.304C155.999 199.247 156.079 199.205 156.165 199.179C156.252 199.154 156.342 199.146 156.431 199.155C156.521 199.165 156.608 199.192 156.686 199.236C156.765 199.279 156.835 199.337 156.891 199.408C157.216 199.815 164.964 209.501 166.407 218.973C167.044 223.169 167.428 227.58 167.761 231.472C168.176 236.252 168.501 240.352 169.241 242.424C169.503 243.124 169.872 243.778 170.337 244.363C171.691 246.279 173.548 248.936 175.11 259.274C175.531 262.596 176.005 266.733 176.412 271.891Z" fill="#816CC5"/>
<path d="M141.5 197.313C141.5 197.313 144.031 199.237 150.424 199.237C156.5 199.237 159.696 196.277 159.696 196.277L160.481 199.482C157.664 201.353 154.397 202.433 151.02 202.608C147.643 202.784 144.281 202.049 141.285 200.481L141.5 197.313Z" fill="#816CC5"/>
<path opacity="0.6" d="M141.5 197.313C141.5 197.313 144.031 199.237 150.424 199.237C156.5 199.237 159.696 196.277 159.696 196.277L160.481 199.482C157.664 201.353 154.397 202.433 151.02 202.608C147.643 202.784 144.281 202.049 141.285 200.481L141.5 197.313Z" fill="black"/>
</svg>
